<?xml version="1.0" encoding="UTF-8"?>
<svg version="1.1" xmlns="http://www.w3.org/2000/svg" width="500" height="500">
<path d="M0 0 C25.27008256 21.57877865 40.45935583 52.21670848 43.22705078 85.21777344 C43.6948893 93.02743426 43.51255994 100.86951019 43.375 108.6875 C44.42816406 108.71328125 45.48132813 108.7390625 46.56640625 108.765625 C67.44557552 109.4898849 86.30225763 115.75261808 101.375 130.6875 C108.18803843 138.18084912 113.3921372 146.35886787 117.375 155.6875 C117.69082031 156.42097656 118.00664062 157.15445313 118.33203125 157.91015625 C125.13473506 175.83846433 123.00671991 195.83070687 115.94140625 213.21484375 C107.19882869 232.18854324 92.16569268 245.06157643 72.76171875 252.71875 C68.99747165 254.0494822 66.43945173 254.6875 62.375 254.6875 C62.36082031 255.53570312 62.34664063 256.38390625 62.33203125 257.2578125 C61.75348305 271.48697099 57.62108257 282.72121602 48.375 293.6875 C47.85421875 294.33203125 47.3334375 294.9765625 46.796875 295.640625 C37.99050957 305.51442867 24.70975394 310.94864497 11.72874451 311.97610474 C7.67159172 312.09796282 3.62487628 312.13210629 -0.43359375 312.12109375 C-1.93229912 312.12567018 -3.43100241 312.13098001 -4.92970276 312.13697815 C-8.05193677 312.1458488 -11.17391417 312.14355577 -14.29614258 312.13354492 C-18.26096095 312.12205947 -22.224888 312.14229056 -26.1895895 312.17146206 C-29.27921501 312.18996862 -32.36863251 312.18950323 -35.45829964 312.18382454 C-36.91847039 312.1836731 -38.37865689 312.18956733 -39.83877373 312.20211601 C-55.76918565 312.31979233 -71.09148905 308.37024345 -83.078125 297.296875 C-92.4518822 287.54438014 -97.20386842 275.8550577 -99.625 262.6875 C-102.265 262.3575 -104.905 262.0275 -107.625 261.6875 C-107.6765625 262.368125 -107.728125 263.04875 -107.78125 263.75 C-109.38433842 277.44911925 -116.15619702 290.79022747 -126.8984375 299.5390625 C-140.14042642 309.35567889 -152.81752882 312.00819201 -168.9375 312.05859375 C-170.43473386 312.0675832 -171.93196693 312.07670538 -173.42919922 312.08595276 C-176.56268478 312.10238574 -179.69606431 312.11013148 -182.82958984 312.11303711 C-186.79881582 312.11839178 -190.76701 312.15597373 -194.73594666 312.20178127 C-197.82997034 312.23188705 -200.92375659 312.23876794 -204.01791382 312.23976326 C-205.47843105 312.24390548 -206.93895313 312.25609058 -208.39932251 312.27728081 C-225.34545047 312.50345986 -240.64963151 308.17967225 -253.375 296.4375 C-260.29616958 289.00180702 -264.71120302 280.35315988 -267.625 270.6875 C-267.82222656 270.08292969 -268.01945312 269.47835938 -268.22265625 268.85546875 C-268.83392438 265.56174241 -268.72849247 262.27365621 -268.6875 258.9375 C-268.68298828 258.24011719 -268.67847656 257.54273438 -268.67382812 256.82421875 C-268.6621002 255.11194197 -268.64416653 253.39970967 -268.625 251.6875 C-269.82125 251.3575 -271.0175 251.0275 -272.25 250.6875 C-284.75920441 246.44576036 -294.45953504 238.95726612 -303.625 229.6875 C-304.84509766 228.48287109 -304.84509766 228.48287109 -306.08984375 227.25390625 C-322.68208823 209.9809543 -329.83591297 186.26535036 -329.625 162.6875 C-328.40811121 137.07992728 -315.93683837 115.20006803 -297.29150391 98.12011719 C-279.69240237 82.99097452 -256.53232245 76.40852686 -233.625 77.6875 C-223.60925222 78.80371986 -214.05431496 81.10835733 -204.625 84.6875 C-202.81792385 82.88042385 -203.10532634 80.00910509 -202.8125 77.5625 C-199.19090083 51.60770594 -188.29783591 28.90325356 -170.625 9.6875 C-169.43970703 8.37845703 -169.43970703 8.37845703 -168.23046875 7.04296875 C-123.74808204 -39.80000896 -48.550537 -40.32906746 0 0 Z M-244.30859375 231.69140625 C-250.75903561 241.47234332 -251.72744635 252.48489456 -250.19921875 263.85546875 C-247.81570859 275.15886354 -241.99357192 282.2021802 -232.859375 288.99609375 C-223.93851724 293.6612283 -214.78079206 294.14501143 -204.8828125 294.12109375 C-203.59744598 294.1263356 -202.31207947 294.13157745 -200.98776245 294.13697815 C-198.28324461 294.14584498 -195.57902306 294.14356126 -192.87451172 294.13354492 C-189.44657164 294.12207243 -186.01966448 294.14227177 -182.59185982 294.17146206 C-179.27212744 294.19445847 -175.95262202 294.18734669 -172.6328125 294.18359375 C-171.42199005 294.19482773 -170.2111676 294.20606171 -168.96365356 294.21763611 C-155.79034616 294.11153846 -145.27205545 290.98839245 -135.7265625 281.875 C-128.30053608 274.10430569 -125.2736052 264.55836634 -125.4765625 253.8828125 C-126.1931191 243.2853175 -129.93102299 233.21049975 -137.625 225.6875 C-148.38307645 217.86868372 -158.65398589 216.2235789 -171.7421875 216.25390625 C-173.08920552 216.24933083 -174.43622122 216.24402129 -175.78323364 216.23802185 C-178.59207707 216.22914353 -181.40063539 216.23145219 -184.20947266 216.24145508 C-187.77540828 216.25292862 -191.34035112 216.2327324 -194.90615654 216.20353794 C-197.68435725 216.18502232 -200.46232683 216.18549869 -203.24057388 216.19117546 C-205.18343569 216.19139948 -207.12627632 216.17464614 -209.06906128 216.15736389 C-223.42274096 216.26882055 -235.10058142 220.42601786 -244.30859375 231.69140625 Z M-72.6328125 229.015625 C-78.6454081 237.21690603 -81.18758695 244.34759384 -81.0625 254.5 C-81.05275146 255.38220215 -81.04300293 256.2644043 -81.03295898 257.17333984 C-80.73365796 268.18964667 -77.86246446 275.47050796 -70.1171875 283.45703125 C-59.52751541 292.93462179 -48.6933393 293.99841011 -34.97265625 293.98828125 C-33.67734482 293.99256638 -32.38203339 293.9968515 -31.04747009 294.00126648 C-28.31847004 294.00868398 -25.58959948 294.00846994 -22.8605957 294.00317383 C-19.38988642 293.99738101 -15.91971113 294.0143269 -12.44909 294.0375185 C-9.10275797 294.05592139 -5.75653839 294.05206817 -2.41015625 294.05078125 C-0.56128563 294.06459587 -0.56128563 294.06459587 1.32493591 294.07868958 C13.64987466 294.01315534 24.51136196 291.21979 33.640625 282.53125 C41.31199938 273.7802007 44.1762472 263.49188122 43.7578125 251.95703125 C42.38552924 240.23661201 38.15970291 231.61803879 29.3125 223.9375 C19.61227925 216.9646999 8.53384448 216.08135743 -3.0703125 216.15625 C-4.41543862 216.15354427 -5.76056282 216.14965297 -7.10568237 216.14465332 C-9.9008885 216.1388128 -12.69557747 216.14714433 -15.49072266 216.16601562 C-19.04214012 216.18884777 -22.59235063 216.17562204 -26.14372444 216.15172577 C-28.9133283 216.13715606 -31.68265369 216.14192345 -34.45226669 216.15223694 C-36.38795525 216.15613451 -38.32365544 216.14416627 -40.25930786 216.13171387 C-52.38074571 216.25923612 -64.43684677 219.51213167 -72.6328125 229.015625 Z " fill="#F8A23F" transform="translate(352.625,98.3125)"/>
<path d="M0 0 C25.27008256 21.57877865 40.45935583 52.21670848 43.22705078 85.21777344 C43.6948893 93.02743426 43.51255994 100.86951019 43.375 108.6875 C44.42816406 108.71328125 45.48132813 108.7390625 46.56640625 108.765625 C67.44557552 109.4898849 86.30225763 115.75261808 101.375 130.6875 C108.18803843 138.18084912 113.3921372 146.35886787 117.375 155.6875 C117.69082031 156.42097656 118.00664062 157.15445313 118.33203125 157.91015625 C125.13473506 175.83846433 123.00671991 195.83070687 115.94140625 213.21484375 C107.19882869 232.18854324 92.16569268 245.06157643 72.76171875 252.71875 C68.99747165 254.0494822 66.43945173 254.6875 62.375 254.6875 C62.36082031 255.53570312 62.34664063 256.38390625 62.33203125 257.2578125 C61.75348305 271.48697099 57.62108257 282.72121602 48.375 293.6875 C47.85421875 294.33203125 47.3334375 294.9765625 46.796875 295.640625 C37.99050957 305.51442867 24.70975394 310.94864497 11.72874451 311.97610474 C7.67159172 312.09796282 3.62487628 312.13210629 -0.43359375 312.12109375 C-1.93229912 312.12567018 -3.43100241 312.13098001 -4.92970276 312.13697815 C-8.05193677 312.1458488 -11.17391417 312.14355577 -14.29614258 312.13354492 C-18.26096095 312.12205947 -22.224888 312.14229056 -26.1895895 312.17146206 C-29.27921501 312.18996862 -32.36863251 312.18950323 -35.45829964 312.18382454 C-36.91847039 312.1836731 -38.37865689 312.18956733 -39.83877373 312.20211601 C-55.76918565 312.31979233 -71.09148905 308.37024345 -83.078125 297.296875 C-92.4518822 287.54438014 -97.20386842 275.8550577 -99.625 262.6875 C-102.265 262.3575 -104.905 262.0275 -107.625 261.6875 C-107.6765625 262.368125 -107.728125 263.04875 -107.78125 263.75 C-109.38433842 277.44911925 -116.15619702 290.79022747 -126.8984375 299.5390625 C-140.14042642 309.35567889 -152.81752882 312.00819201 -168.9375 312.05859375 C-170.43473386 312.0675832 -171.93196693 312.07670538 -173.42919922 312.08595276 C-176.56268478 312.10238574 -179.69606431 312.11013148 -182.82958984 312.11303711 C-186.79881582 312.11839178 -190.76701 312.15597373 -194.73594666 312.20178127 C-197.82997034 312.23188705 -200.92375659 312.23876794 -204.01791382 312.23976326 C-205.47843105 312.24390548 -206.93895313 312.25609058 -208.39932251 312.27728081 C-225.34545047 312.50345986 -240.64963151 308.17967225 -253.375 296.4375 C-260.29616958 289.00180702 -264.71120302 280.35315988 -267.625 270.6875 C-267.82222656 270.08292969 -268.01945312 269.47835938 -268.22265625 268.85546875 C-268.83392438 265.56174241 -268.72849247 262.27365621 -268.6875 258.9375 C-268.68298828 258.24011719 -268.67847656 257.54273438 -268.67382812 256.82421875 C-268.6621002 255.11194197 -268.64416653 253.39970967 -268.625 251.6875 C-269.82125 251.3575 -271.0175 251.0275 -272.25 250.6875 C-284.75920441 246.44576036 -294.45953504 238.95726612 -303.625 229.6875 C-304.84509766 228.48287109 -304.84509766 228.48287109 -306.08984375 227.25390625 C-322.68208823 209.9809543 -329.83591297 186.26535036 -329.625 162.6875 C-328.40811121 137.07992728 -315.93683837 115.20006803 -297.29150391 98.12011719 C-279.69240237 82.99097452 -256.53232245 76.40852686 -233.625 77.6875 C-223.60925222 78.80371986 -214.05431496 81.10835733 -204.625 84.6875 C-202.81792385 82.88042385 -203.10532634 80.00910509 -202.8125 77.5625 C-199.19090083 51.60770594 -188.29783591 28.90325356 -170.625 9.6875 C-169.43970703 8.37845703 -169.43970703 8.37845703 -168.23046875 7.04296875 C-123.74808204 -39.80000896 -48.550537 -40.32906746 0 0 Z M-110.625 -7.3125 C-112.28595703 -6.86197266 -112.28595703 -6.86197266 -113.98046875 -6.40234375 C-121.84657385 -4.00198671 -133.97555499 -0.28666751 -138.625 6.6875 C-140.27938613 7.38408363 -141.94754318 8.04846883 -143.625 8.6875 C-145.90984306 10.08707197 -145.90984306 10.08707197 -147.625 11.6875 C-147.625 12.3475 -147.625 13.0075 -147.625 13.6875 C-148.181875 13.935 -148.73875 14.1825 -149.3125 14.4375 C-154.0245508 16.98455449 -157.37355234 20.35397299 -160.625 24.5625 C-162.88729039 27.47605581 -165.16093392 30.31842641 -167.625 33.0625 C-170.02902881 35.66777203 -170.02902881 35.66777203 -169.625 39.6875 C-170.285 39.6875 -170.945 39.6875 -171.625 39.6875 C-180.23917087 57.14583174 -186.04312975 73.42436371 -185.8125 93.125 C-185.81185547 94.16720703 -185.81121094 95.20941406 -185.81054688 96.28320312 C-185.77051242 103.45826653 -185.31882905 110.54720859 -184.625 117.6875 C-185.76388672 116.94693359 -185.76388672 116.94693359 -186.92578125 116.19140625 C-187.91964844 115.55074219 -188.91351563 114.91007812 -189.9375 114.25 C-190.92363281 113.61191406 -191.90976563 112.97382813 -192.92578125 112.31640625 C-195.57776993 110.58134394 -195.57776993 110.58134394 -198.625 109.6875 C-198.625 109.0275 -198.625 108.3675 -198.625 107.6875 C-201.57877498 105.31769987 -201.57877498 105.31769987 -205.625 105.6875 C-205.955 104.6975 -206.285 103.7075 -206.625 102.6875 C-209.3900168 101.66100235 -212.03718866 100.82237675 -214.875 100.0625 C-215.63941406 99.8459375 -216.40382813 99.629375 -217.19140625 99.40625 C-233.34944996 94.88534658 -250.79916445 94.83673656 -266.625 100.6875 C-268.11193359 101.23083984 -268.11193359 101.23083984 -269.62890625 101.78515625 C-278.64480906 105.4843097 -286.03343548 111.5755488 -292.625 118.6875 C-293.54732422 119.63689453 -293.54732422 119.63689453 -294.48828125 120.60546875 C-307.79966137 134.76917829 -312.05984461 151.98957319 -311.859375 170.9609375 C-311.65448364 177.39925437 -310.30333868 183.47365084 -308.625 189.6875 C-307.965 189.6875 -307.305 189.6875 -306.625 189.6875 C-306.74875 190.491875 -306.8725 191.29625 -307 192.125 C-306.52638868 196.62430752 -304.7389943 198.89949975 -302.140625 202.51171875 C-300.625 204.6875 -300.625 204.6875 -299.0625 208 C-297.35378206 211.19455964 -295.48487226 212.47759871 -292.625 214.6875 C-291.65543818 215.88684236 -290.69852026 217.09644838 -289.75 218.3125 C-286.32299856 222.32958116 -282.40909819 225.1917064 -278.0625 228.125 C-277.42521973 228.56215332 -276.78793945 228.99930664 -276.13134766 229.44970703 C-272.3109203 231.95015249 -269.27806578 233.29317239 -264.625 233.6875 C-262.885071 230.95332585 -261.52310802 228.41748625 -260.375 225.375 C-256.75748107 216.7787308 -248.2803092 209.35713861 -239.96875 205.43359375 C-238.28633702 204.7631027 -236.59298725 204.11894152 -234.88671875 203.51171875 C-232.6355871 202.754578 -232.6355871 202.754578 -230.70703125 201.64453125 C-225.93857084 199.45264982 -220.68077892 199.54741056 -215.51806641 199.48217773 C-214.83444031 199.47227814 -214.15081421 199.46237854 -213.44647217 199.45217896 C-211.20653645 199.42081237 -208.96657958 199.39590581 -206.7265625 199.37109375 C-205.16571529 199.35050271 -203.6048734 199.3295057 -202.04403687 199.30812073 C-197.95062579 199.25312195 -193.85716625 199.2036155 -189.76367188 199.15527344 C-185.58068568 199.10489559 -181.39776921 199.04929481 -177.21484375 198.99414062 C-169.01828826 198.88683082 -160.82167414 198.78532637 -152.625 198.6875 C-152.625 199.3475 -152.625 200.0075 -152.625 200.6875 C-150.706875 201.0278125 -150.706875 201.0278125 -148.75 201.375 C-136.38409236 204.19597268 -125.12157923 212.15702881 -117.8984375 222.57421875 C-115.54188711 226.48493581 -113.56345121 230.55775613 -111.625 234.6875 C-110.965 236.0075 -110.305 237.3275 -109.625 238.6875 C-105.335 238.6875 -101.045 238.6875 -96.625 238.6875 C-96.24730469 237.67171875 -95.86960937 236.6559375 -95.48046875 235.609375 C-90.49377964 222.8923102 -83.31771334 211.47955213 -70.2890625 205.640625 C-68.40104167 204.98958333 -66.51302083 204.33854167 -64.625 203.6875 C-64.625 203.0275 -64.625 202.3675 -64.625 201.6875 C-63.26375 201.4709375 -63.26375 201.4709375 -61.875 201.25 C-58.84721441 200.79043449 -58.84721441 200.79043449 -56.84393311 200.16142273 C-53.82791364 199.51725722 -50.95602474 199.55194729 -47.87207031 199.54223633 C-47.20158661 199.53887772 -46.53110291 199.5355191 -45.84030151 199.53205872 C-43.62789038 199.52257546 -41.41555519 199.52060669 -39.203125 199.51953125 C-37.65858937 199.516316 -36.11405404 199.51295172 -34.56951904 199.50944519 C-31.3314951 199.50345988 -28.09349783 199.50160459 -24.85546875 199.50219727 C-20.72204213 199.50229866 -16.58878817 199.48866739 -12.45540237 199.47142506 C-9.2639285 199.46026116 -6.07249573 199.45827943 -2.88100433 199.45880699 C-1.35809486 199.45763268 0.16481587 199.45324196 1.68770599 199.44547462 C9.19897936 199.41076153 16.13779893 199.4947215 23.375 201.6875 C24.695 201.6875 26.015 201.6875 27.375 201.6875 C27.375 202.3475 27.375 203.0075 27.375 203.6875 C28.20902344 204.07679688 29.04304688 204.46609375 29.90234375 204.8671875 C38.18678868 208.98568589 43.46777294 213.44599167 49.375 220.6875 C50.05949219 221.31785156 50.74398438 221.94820312 51.44921875 222.59765625 C53.82808155 225.17918079 54.84944499 227.67774832 56.125 230.9375 C56.76695312 232.55398438 56.76695312 232.55398438 57.421875 234.203125 C57.73640625 235.02296875 58.0509375 235.8428125 58.375 236.6875 C66.07363548 236.11723071 72.91473765 233.99434157 79.375 229.6875 C79.375 229.0275 79.375 228.3675 79.375 227.6875 C80.055625 227.501875 80.73625 227.31625 81.4375 227.125 C92.73121262 221.59828957 98.11164443 208.74750937 102.375 197.6875 C102.74496094 196.94757813 103.11492187 196.20765625 103.49609375 195.4453125 C104.8306139 191.25788484 104.7034867 187.18006725 104.6875 182.8125 C104.70361328 181.93980469 104.71972656 181.06710937 104.73632812 180.16796875 C104.74057511 174.5194758 103.91675243 170.72674549 101.375 165.6875 C100.88361878 164.37952391 100.40177261 163.06784213 99.9375 161.75 C99.42207837 160.3937643 98.90124091 159.03957442 98.375 157.6875 C98.13523437 157.04941406 97.89546875 156.41132813 97.6484375 155.75390625 C94.59805252 148.66960094 88.61539744 141.62831991 81.55859375 138.3984375 C80.83800781 138.16382813 80.11742187 137.92921875 79.375 137.6875 C79.375 137.0275 79.375 136.3675 79.375 135.6875 C68.4915916 129.63040797 68.4915916 129.63040797 56.375 127.6875 C55.10914063 127.62820312 53.84328125 127.56890625 52.5390625 127.5078125 C43.87608158 127.18930601 36.69742835 127.95102394 28.42578125 130.71484375 C25.41069079 131.67612099 22.50380194 132.24186854 19.375 132.6875 C19.64054687 131.80449219 19.90609375 130.92148438 20.1796875 130.01171875 C20.53289062 128.81160156 20.88609375 127.61148438 21.25 126.375 C21.59804688 125.20324219 21.94609375 124.03148437 22.3046875 122.82421875 C29.06308053 97.79612292 26.62324516 70.9939158 15.375 47.6875 C14.39926973 46.33630489 13.40356656 44.99892236 12.375 43.6875 C11.89546875 42.48480469 11.89546875 42.48480469 11.40625 41.2578125 C6.88352751 29.98526933 -4.02219295 18.69317999 -13.93359375 11.90625 C-15.625 10.6875 -15.625 10.6875 -17.0234375 9.26953125 C-33.3120444 -6.8204341 -60.98593358 -11.56801941 -82.78857422 -11.63378906 C-92.40982198 -11.51670761 -101.36936614 -9.84205958 -110.625 -7.3125 Z M-244.30859375 231.69140625 C-250.75903561 241.47234332 -251.72744635 252.48489456 -250.19921875 263.85546875 C-247.81570859 275.15886354 -241.99357192 282.2021802 -232.859375 288.99609375 C-223.93851724 293.6612283 -214.78079206 294.14501143 -204.8828125 294.12109375 C-203.59744598 294.1263356 -202.31207947 294.13157745 -200.98776245 294.13697815 C-198.28324461 294.14584498 -195.57902306 294.14356126 -192.87451172 294.13354492 C-189.44657164 294.12207243 -186.01966448 294.14227177 -182.59185982 294.17146206 C-179.27212744 294.19445847 -175.95262202 294.18734669 -172.6328125 294.18359375 C-171.42199005 294.19482773 -170.2111676 294.20606171 -168.96365356 294.21763611 C-155.79034616 294.11153846 -145.27205545 290.98839245 -135.7265625 281.875 C-128.30053608 274.10430569 -125.2736052 264.55836634 -125.4765625 253.8828125 C-126.1931191 243.2853175 -129.93102299 233.21049975 -137.625 225.6875 C-148.38307645 217.86868372 -158.65398589 216.2235789 -171.7421875 216.25390625 C-173.08920552 216.24933083 -174.43622122 216.24402129 -175.78323364 216.23802185 C-178.59207707 216.22914353 -181.40063539 216.23145219 -184.20947266 216.24145508 C-187.77540828 216.25292862 -191.34035112 216.2327324 -194.90615654 216.20353794 C-197.68435725 216.18502232 -200.46232683 216.18549869 -203.24057388 216.19117546 C-205.18343569 216.19139948 -207.12627632 216.17464614 -209.06906128 216.15736389 C-223.42274096 216.26882055 -235.10058142 220.42601786 -244.30859375 231.69140625 Z M-72.6328125 229.015625 C-78.6454081 237.21690603 -81.18758695 244.34759384 -81.0625 254.5 C-81.05275146 255.38220215 -81.04300293 256.2644043 -81.03295898 257.17333984 C-80.73365796 268.18964667 -77.86246446 275.47050796 -70.1171875 283.45703125 C-59.52751541 292.93462179 -48.6933393 293.99841011 -34.97265625 293.98828125 C-33.67734482 293.99256638 -32.38203339 293.9968515 -31.04747009 294.00126648 C-28.31847004 294.00868398 -25.58959948 294.00846994 -22.8605957 294.00317383 C-19.38988642 293.99738101 -15.91971113 294.0143269 -12.44909 294.0375185 C-9.10275797 294.05592139 -5.75653839 294.05206817 -2.41015625 294.05078125 C-0.56128563 294.06459587 -0.56128563 294.06459587 1.32493591 294.07868958 C13.64987466 294.01315534 24.51136196 291.21979 33.640625 282.53125 C41.31199938 273.7802007 44.1762472 263.49188122 43.7578125 251.95703125 C42.38552924 240.23661201 38.15970291 231.61803879 29.3125 223.9375 C19.61227925 216.9646999 8.53384448 216.08135743 -3.0703125 216.15625 C-4.41543862 216.15354427 -5.76056282 216.14965297 -7.10568237 216.14465332 C-9.9008885 216.1388128 -12.69557747 216.14714433 -15.49072266 216.16601562 C-19.04214012 216.18884777 -22.59235063 216.17562204 -26.14372444 216.15172577 C-28.9133283 216.13715606 -31.68265369 216.14192345 -34.45226669 216.15223694 C-36.38795525 216.15613451 -38.32365544 216.14416627 -40.25930786 216.13171387 C-52.38074571 216.25923612 -64.43684677 219.51213167 -72.6328125 229.015625 Z " fill="#FBFBF9" transform="translate(352.625,98.3125)"/>
<path d="M0 0 C8.50888293 -0.25905264 15.8684832 0.44741766 23.0859375 5.2109375 C24.9609375 7.1484375 24.9609375 7.1484375 24.9609375 9.1484375 C25.55648437 9.22964844 26.15203125 9.31085938 26.765625 9.39453125 C31.03599899 10.86104759 32.93196324 15.32919183 34.9609375 19.1484375 C35.89943132 21.83996696 36.44881858 24.33178347 36.9609375 27.1484375 C38.55421875 27.11363281 38.55421875 27.11363281 40.1796875 27.078125 C54.1077733 26.86404943 54.1077733 26.86404943 60.9609375 29.1484375 C62.1159375 29.5196875 63.2709375 29.8909375 64.4609375 30.2734375 C65.2859375 30.5621875 66.1109375 30.8509375 66.9609375 31.1484375 C66.9609375 31.8084375 66.9609375 32.4684375 66.9609375 33.1484375 C67.83878906 33.3959375 68.71664062 33.6434375 69.62109375 33.8984375 C79.70879855 37.67395275 87.65057007 46.89885147 92.05078125 56.53515625 C93.76711011 61.19376314 94.27636558 65.20673089 93.9609375 70.1484375 C88.9609375 65.1484375 88.9609375 65.1484375 86.7109375 62.8359375 C79.95703834 56.23553605 73.7944187 50.7717096 64.9609375 47.1484375 C64.08953125 46.78234375 63.218125 46.41625 62.3203125 46.0390625 C57.65658287 44.80263185 53.20519475 44.76689603 48.3984375 44.7734375 C46.93603638 44.77150391 46.93603638 44.77150391 45.4440918 44.76953125 C38.51615147 44.8706439 32.82260719 45.79458204 26.32421875 48.2734375 C23.9609375 49.1484375 23.9609375 49.1484375 20.9609375 49.1484375 C20.9515918 48.57399902 20.94224609 47.99956055 20.93261719 47.40771484 C20.87858719 44.77878446 20.79500856 42.15157183 20.7109375 39.5234375 C20.69675781 38.61980469 20.68257813 37.71617187 20.66796875 36.78515625 C20.45563174 30.96712223 19.76386564 27.61829706 15.9609375 23.1484375 C14.64535047 22.12520314 13.31715995 21.11716782 11.9609375 20.1484375 C11.9609375 19.4884375 11.9609375 18.8284375 11.9609375 18.1484375 C6.3948523 14.64334606 -0.7326781 15.62018813 -7.0390625 16.1484375 C-12.87203889 17.64927287 -17.27636522 20.38973211 -21.0390625 25.1484375 C-24.95163038 31.81429388 -25.21321822 39.59924922 -26.0390625 47.1484375 C-29.44214391 44.87971656 -29.85511166 43.58207394 -30.68359375 39.6875 C-32.10229697 29.55390559 -31.52506834 21.44744052 -25.53125 13.03125 C-20.651706 7.01692832 -14.93824299 2.05824628 -7.2890625 0.2734375 C-4.85889324 0.14757216 -2.43155525 0.11876491 0 0 Z " fill="#FEFAF3" transform="translate(315.0390625,226.8515625)"/>
<path d="M0 0 C3.37038684 1.71138814 5.28913304 1.94188272 9.015625 1.53125 C10.211875 1.03625 11.408125 0.54125 12.640625 0.03125 C19.5343229 -2.72359295 27.12605044 -2.59749977 33.953125 0.28125 C38.72433606 2.73600352 43.14365525 5.2556989 45.015625 10.53125 C45.015625 11.52125 45.015625 12.51125 45.015625 13.53125 C44.273125 13.20125 43.530625 12.87125 42.765625 12.53125 C35.28041616 10.53519431 27.2472335 10.6687383 20.015625 13.53125 C16.78278804 15.60326133 15.16217761 17.57994129 13.390625 20.96875 C12.98585938 21.73058594 12.58109375 22.49242187 12.1640625 23.27734375 C11.10438617 25.35704865 10.05375219 27.44070947 9.015625 29.53125 C5.04530847 28.99107088 3.29366494 27.12386026 0.578125 24.28125 C-0.16308594 23.51296875 -0.90429688 22.7446875 -1.66796875 21.953125 C-3.26384292 20.28458877 -4.83423092 18.59142562 -6.3828125 16.87890625 C-14.31750076 9.7186245 -26.6932261 9.93359196 -36.8203125 10.26171875 C-41.66791188 10.51840777 -46.30285187 11.24336111 -50.984375 12.53125 C-52.31743656 12.86566856 -53.65069061 13.19932406 -54.984375 13.53125 C-52.73110825 6.6228827 -47.0198144 0.84631787 -40.7578125 -2.74609375 C-27.28346393 -7.97455719 -12.22364242 -7.440478 0 0 Z " fill="#FDFAF5" transform="translate(138.984375,258.46875)"/>
<path d="M0 0 C1.69742791 1.63532689 3.36507086 3.30218897 5 5 C6.7455029 6.52599268 8.49565327 8.04668287 10.25 9.5625 C16.0774295 14.81506145 20.47889027 20.57625659 25 27 C25.55816406 27.72832031 26.11632812 28.45664063 26.69140625 29.20703125 C28.26094665 31.35753586 29.02119435 33.52419748 30 36 C30.92619141 37.54494141 30.92619141 37.54494141 31.87109375 39.12109375 C34.20331433 43.16146413 35.68801514 47.324999 37.125 51.75 C37.50205078 52.85214844 37.50205078 52.85214844 37.88671875 53.9765625 C41.24183662 64.12974644 42.41337764 74.08091239 42.4375 84.75 C42.44221313 86.49108032 42.44221313 86.49108032 42.44702148 88.26733398 C42.29185844 99.72678724 41.22383902 113.55232197 36 124 C36.7734375 123.80664062 37.546875 123.61328125 38.34375 123.4140625 C41.5625 122.609375 44.78125 121.8046875 48 121 C48.94117676 120.73316406 48.94117676 120.73316406 49.90136719 120.4609375 C54.75692915 119.1260751 59.22297557 118.68367121 64.25 118.75 C64.9821875 118.75531738 65.714375 118.76063477 66.46875 118.76611328 C72.6841768 118.87341632 79.01380913 119.21734757 85 121 C85.33 121.66 85.66 122.32 86 123 C84.33388095 123.042721 82.66617115 123.04063832 81 123 C80.67 122.67 80.34 122.34 80 122 C68.39299203 119.99109477 54.78958755 119.60520622 44 125 C42.45976004 125.06950541 40.91665012 125.08452357 39.375 125.0625 C38.55773437 125.05347656 37.74046875 125.04445312 36.8984375 125.03515625 C35.95871094 125.01775391 35.95871094 125.01775391 35 125 C34.12159004 121.90279155 34.00564594 120.09354597 35 117 C35.66 117 36.32 117 37 117 C36.98839844 116.21753906 36.97679687 115.43507812 36.96484375 114.62890625 C36.95582031 113.61699219 36.94679688 112.60507813 36.9375 111.5625 C36.92589844 110.55316406 36.91429687 109.54382813 36.90234375 108.50390625 C37 106 37 106 38 105 C39.6169838 90.68273285 39.47232878 76.65233978 35.71875 62.7265625 C35.26528579 61.00635586 34.86208991 59.27137503 34.53125 57.5234375 C33.43430826 52.31296426 31.48045054 47.72515525 29.0625 43 C28.55847656 42.01 28.05445313 41.02 27.53515625 40 C27.02855469 39.01 26.52195312 38.02 26 37 C25.22462891 35.4221875 25.22462891 35.4221875 24.43359375 33.8125 C22.27212548 29.25955039 22.27212548 29.25955039 18 27 C16.96514123 24.68191636 15.9644586 22.34824702 15 20 C14.34 19.67 13.68 19.34 13 19 C12.566875 18.0409375 12.566875 18.0409375 12.125 17.0625 C11.19199386 14.87574742 11.19199386 14.87574742 9.1875 14.125 C6.88272409 12.93968667 5.97799301 11.92823763 4.375 9.9375 C2.32880603 6.99175287 2.32880603 6.99175287 0 6 C-0.60328125 5.38253906 -1.2065625 4.76507813 -1.828125 4.12890625 C-6.47911318 -0.43006598 -12.45189538 -3.58101061 -18.5625 -5.75 C-22 -7 -22 -7 -23 -9 C-25.34386809 -9.91031272 -25.34386809 -9.91031272 -28.0625 -10.625 C-28.98160156 -10.88539062 -29.90070313 -11.14578125 -30.84765625 -11.4140625 C-31.55792969 -11.60742188 -32.26820313 -11.80078125 -33 -12 C-33 -12.66 -33 -13.32 -33 -14 C-34.010625 -13.979375 -35.02125 -13.95875 -36.0625 -13.9375 C-39.80327257 -13.99687734 -43.31244898 -14.39795085 -47 -15 C-47.33 -14.34 -47.66 -13.68 -48 -13 C-48 -14.32 -48 -15.64 -48 -17 C-51.7499837 -17.02905924 -55.49993837 -17.04681874 -59.25 -17.0625 C-60.31347656 -17.07087891 -61.37695312 -17.07925781 -62.47265625 -17.08789062 C-63.49746094 -17.09111328 -64.52226562 -17.09433594 -65.578125 -17.09765625 C-66.52075195 -17.10289307 -67.46337891 -17.10812988 -68.43457031 -17.11352539 C-70.79597504 -17.00902851 -72.74082628 -16.65694874 -75 -16 C-76.66424289 -15.63461334 -78.33109182 -15.28094909 -80 -14.9375 C-80.845625 -14.76089844 -81.69125 -14.58429688 -82.5625 -14.40234375 C-85 -14 -85 -14 -89 -14 C-89.33 -13.34 -89.66 -12.68 -90 -12 C-90.66 -12 -91.32 -12 -92 -12 C-96.67303406 -10.87847183 -100.59927001 -9.29344897 -104.83984375 -7.0546875 C-107.14049264 -5.93140504 -109.46223074 -5.10334249 -111.875 -4.25 C-117.82170136 -1.92421956 -122.22939377 1.83656183 -127 6 C-127.66644531 6.556875 -128.33289063 7.11375 -129.01953125 7.6875 C-140.33068108 17.21976689 -140.33068108 17.21976689 -149 29 C-150.5625 31.3125 -150.5625 31.3125 -152 33 C-152.66 33 -153.32 33 -154 33 C-154.433125 34.11375 -154.433125 34.11375 -154.875 35.25 C-156 38 -156 38 -157.0625 39.875 C-158.37440475 42.84865076 -158.60524225 45.78554406 -159 49 C-159.65237458 53.34916388 -161.21664905 56.98746036 -163 61 C-164.07957436 64.23872309 -164.56113497 67.31164211 -165.0625 70.6875 C-165.23910156 71.86699219 -165.41570312 73.04648438 -165.59765625 74.26171875 C-165.73042969 75.16535156 -165.86320313 76.06898438 -166 77 C-166.66 77 -167.32 77 -168 77 C-167.9278125 78.11375 -167.855625 79.2275 -167.78125 80.375 C-167.14913979 90.59918553 -166.87441121 100.75753619 -167 111 C-169.16874252 110.49396008 -170.99967627 110.00016187 -173 109 C-172.505 108.01 -172.505 108.01 -172 107 C-170.68 107.66 -169.36 108.32 -168 109 C-168.06856201 108.27441895 -168.13712402 107.54883789 -168.20776367 106.80126953 C-170.69569163 79.03536992 -168.18394938 55.85314712 -155 31 C-154.34 31 -153.68 31 -153 31 C-152.94328125 30.3090625 -152.8865625 29.618125 -152.828125 28.90625 C-151.71445757 24.99790769 -149.39393888 22.47529414 -146.75 19.5 C-146.27175781 18.94441406 -145.79351562 18.38882813 -145.30078125 17.81640625 C-142.33480181 14.40030527 -139.22818927 11.17204685 -136 8 C-135.443125 7.401875 -134.88625 6.80375 -134.3125 6.1875 C-133 5 -133 5 -131 5 C-131 4.34 -131 3.68 -131 3 C-127.8411784 0.11193453 -124.93796048 -1.44554192 -121 -3 C-119.97895449 -3.97850195 -118.9793879 -4.97980427 -118 -6 C-114.11500343 -8.57105806 -110.03509158 -10.3189875 -105.6875 -11.9375 C-104.64940186 -12.3255481 -104.64940186 -12.3255481 -103.59033203 -12.72143555 C-68.44269134 -25.49050285 -30.91381399 -21.50352087 0 0 Z " fill="#ECD585" transform="translate(336,107)"/>
<path d="M0 0 C0 4 0 4 -1 6 C-1.68741795 11.76867355 -1.68741795 11.76867355 1.0625 16.5625 C4.89147772 18.43625505 6.93334276 18.12962701 11 17 C12.79385992 15.5420814 12.79385992 15.5420814 14 14 C14.66 14 15.32 14 16 14 C16.47285018 21.26350415 16.48058756 26.10449006 12 32 C7.39462528 36.93433006 2.77830158 38.7648553 -4 39 C-10.16727991 38.03976541 -14.68238127 35.42041918 -19 31 C-22.75870906 25.73780731 -22.66117332 20.22992892 -22 14 C-20.23946898 8.51128564 -16.65606412 5.20353129 -12 2 C-7.87296148 0.14704393 -4.50132464 -0.21434879 0 0 Z " fill="#F57020" transform="translate(349,321)"/>
<path d="M0 0 C0 4 0 4 -1.0625 5.875 C-2.43364241 8.9829228 -2.00245138 10.79215558 -1 14 C1.0098357 16.59121904 1.0098357 16.59121904 4 18 C7.65521903 17.93697898 9.99588117 17.86561968 12.8125 15.4375 C13.204375 14.963125 13.59625 14.48875 14 14 C14.66 14 15.32 14 16 14 C16.47285018 21.26350415 16.48058756 26.10449006 12 32 C7.39462528 36.93433006 2.77830158 38.7648553 -4 39 C-10.1443414 38.04333689 -14.74314399 35.45956344 -19 31 C-22.25630097 25.46428836 -22.75791265 20.27094853 -22 14 C-20.13211675 8.78958884 -17.12297212 4.61310543 -12.109375 2.0234375 C-7.97943609 0.33678306 -4.50968059 -0.33822604 0 0 Z " fill="#F06D21" transform="translate(182,321)"/>
<path d="M0 0 C6.21034883 1.15786165 8.56564526 2.31515499 13 7 C14.7455029 8.52599268 16.49565327 10.04668287 18.25 11.5625 C24.0774295 16.81506145 28.47889027 22.57625659 33 29 C33.55816406 29.72832031 34.11632812 30.45664063 34.69140625 31.20703125 C36.26094665 33.35753586 37.02119435 35.52419748 38 38 C38.92619141 39.54494141 38.92619141 39.54494141 39.87109375 41.12109375 C42.20331433 45.16146413 43.68801514 49.324999 45.125 53.75 C45.37636719 54.48476562 45.62773437 55.21953125 45.88671875 55.9765625 C49.24183662 66.12974644 50.41337764 76.08091239 50.4375 86.75 C50.44221313 88.49108032 50.44221313 88.49108032 50.44702148 90.26733398 C50.29185844 101.72678724 49.22383902 115.55232197 44 126 C44.7734375 125.80664062 45.546875 125.61328125 46.34375 125.4140625 C49.5625 124.609375 52.78125 123.8046875 56 123 C56.94117676 122.73316406 56.94117676 122.73316406 57.90136719 122.4609375 C62.75692915 121.1260751 67.22297557 120.68367121 72.25 120.75 C73.34828125 120.75797607 73.34828125 120.75797607 74.46875 120.76611328 C80.6841768 120.87341632 87.01380913 121.21734757 93 123 C93.33 123.66 93.66 124.32 94 125 C92.33388095 125.042721 90.66617115 125.04063832 89 125 C88.67 124.67 88.34 124.34 88 124 C76.39299203 121.99109477 62.78958755 121.60520622 52 127 C50.45976004 127.06950541 48.91665012 127.08452357 47.375 127.0625 C46.55773437 127.05347656 45.74046875 127.04445313 44.8984375 127.03515625 C44.27195312 127.02355469 43.64546875 127.01195312 43 127 C42.12159004 123.90279155 42.00564594 122.09354597 43 119 C43.66 119 44.32 119 45 119 C44.98839844 118.21753906 44.97679687 117.43507813 44.96484375 116.62890625 C44.95582031 115.61699219 44.94679688 114.60507813 44.9375 113.5625 C44.92589844 112.55316406 44.91429687 111.54382813 44.90234375 110.50390625 C45 108 45 108 46 107 C47.6169838 92.68273285 47.47232878 78.65233978 43.71875 64.7265625 C43.26528579 63.00635586 42.86208991 61.27137503 42.53125 59.5234375 C41.43430826 54.31296426 39.48045054 49.72515525 37.0625 45 C36.55847656 44.01 36.05445313 43.02 35.53515625 42 C35.02855469 41.01 34.52195312 40.02 34 39 C33.48308594 37.948125 32.96617187 36.89625 32.43359375 35.8125 C30.27212548 31.25955039 30.27212548 31.25955039 26 29 C24.96514123 26.68191636 23.9644586 24.34824702 23 22 C22.34 21.67 21.68 21.34 21 21 C20.71125 20.360625 20.4225 19.72125 20.125 19.0625 C19.19199386 16.87574742 19.19199386 16.87574742 17.1875 16.125 C14.88272409 14.93968667 13.97799301 13.92823763 12.375 11.9375 C10.32880603 8.99175287 10.32880603 8.99175287 8 8 C6.64426252 6.68945377 5.31387169 5.35251497 4 4 C3.2575 3.2575 2.515 2.515 1.75 1.75 C1.1725 1.1725 0.595 0.595 0 0 Z " fill="#ECD17F" transform="translate(328,105)"/>
<path d="M0 0 C1.44158637 0.00747941 2.88318306 0.01316428 4.32478333 0.01715088 C8.08144218 0.03227398 11.83746211 0.07143628 15.59387207 0.1159668 C19.4420508 0.15721114 23.29033485 0.17522351 27.13867188 0.1953125 C34.66174661 0.23794727 42.18429872 0.30603148 49.70703125 0.390625 C49.70703125 0.720625 49.70703125 1.050625 49.70703125 1.390625 C48.56309906 1.39609344 48.56309906 1.39609344 47.39605713 1.40167236 C40.15917443 1.43976193 32.92279468 1.49684813 25.68623734 1.57452774 C21.96707819 1.61380045 18.24814865 1.64608655 14.52880859 1.66162109 C10.92990859 1.67692278 7.33164069 1.71160108 3.7330246 1.75893402 C1.71276017 1.78068368 -0.30768335 1.78308705 -2.32806396 1.78497314 C-13.92362129 1.96638246 -24.72953018 4.07623498 -33.29296875 12.390625 C-41.11964559 20.98392394 -43.64084497 30.4448555 -43.5 41.87890625 C-42.84502248 52.98880791 -39.35235908 61.91962522 -31 69.4609375 C-21.16684023 76.9335136 -10.59439071 77.85332117 1.44921875 77.82421875 C2.73458527 77.8294606 4.01995178 77.83470245 5.3442688 77.84010315 C8.04878664 77.84896998 10.75300819 77.84668626 13.45751953 77.83666992 C16.88545961 77.82519743 20.31236677 77.84539677 23.74017143 77.87458706 C27.05990381 77.89758347 30.37940923 77.89047169 33.69921875 77.88671875 C34.9100412 77.89795273 36.12086365 77.90918671 37.36837769 77.92076111 C49.44027671 77.82353419 59.45709761 75.28098834 68.70703125 67.390625 C69.36703125 67.060625 70.02703125 66.730625 70.70703125 66.390625 C69.33808608 69.57565824 67.90289546 71.36345514 65.14453125 73.453125 C64.52449219 73.93910156 63.90445313 74.42507813 63.265625 74.92578125 C54.68075959 79.84078053 45.9501935 79.85033782 36.3046875 79.82421875 C34.81692774 79.82879001 33.32917007 79.83409836 31.84141541 79.84010315 C28.73574195 79.84899548 25.63032619 79.84665573 22.5246582 79.83666992 C18.56954615 79.82518403 14.6153275 79.84540483 10.66033268 79.87458706 C7.59141001 79.89304381 4.52269776 79.89263794 1.45373344 79.88694954 C-0.00333471 79.88679748 -1.46041821 79.89274474 -2.91743279 79.90524101 C-16.49937541 80.00534479 -25.89448719 77.1140513 -35.9453125 67.87109375 C-43.68932108 59.77239776 -45.73416812 50.52253501 -45.79296875 39.640625 C-45.80239502 38.3100708 -45.80239502 38.3100708 -45.81201172 36.95263672 C-45.61376369 26.668761 -41.63175263 18.44359362 -35.29296875 10.390625 C-25.25376113 1.20380293 -13.04996722 -0.20143917 0 0 Z " fill="#E0DFDF" transform="translate(146.29296875,313.609375)"/>
<path d="M0 0 C1.77651947 0.01640533 1.77651947 0.01640533 3.58892822 0.03314209 C4.24118881 0.03793076 4.8934494 0.04271942 5.56547546 0.0476532 C7.73777671 0.06543455 9.90988613 0.09118098 12.08209229 0.11810303 C13.59651652 0.13480249 15.11094117 0.15146454 16.62536621 0.16809082 C19.81331378 0.20465908 23.00116743 0.24587459 26.18902588 0.28948975 C30.24008354 0.34396841 34.29108622 0.38081968 38.34237289 0.41312027 C41.47929656 0.44126147 44.61596129 0.48233527 47.75269318 0.52672577 C49.24350047 0.54571666 50.73437459 0.56011518 52.22527313 0.56952667 C63.56003118 0.64813522 75.37892251 1.12120116 85.34771729 7.10247803 C85.34771729 7.76247803 85.34771729 8.42247803 85.34771729 9.10247803 C86.33771729 9.10247803 87.32771729 9.10247803 88.34771729 9.10247803 C89.33771729 11.57747803 89.33771729 11.57747803 90.34771729 14.10247803 C85.84974615 12.41573885 81.61885426 10.28573911 77.34771729 8.10247803 C77.34771729 7.44247803 77.34771729 6.78247803 77.34771729 6.10247803 C76.64904541 6.04189209 75.95037354 5.98130615 75.23052979 5.91888428 C74.32045166 5.83509521 73.41037354 5.75130615 72.47271729 5.66497803 C71.56779541 5.58376709 70.66287354 5.50255615 69.73052979 5.41888428 C67.34771729 5.10247803 67.34771729 5.10247803 65.34771729 4.10247803 C63.16369827 4.00028363 60.97649808 3.96403997 58.7901001 3.95721436 C57.77999374 3.95217644 57.77999374 3.95217644 56.7494812 3.94703674 C54.51658293 3.93751547 52.28375961 3.93558275 50.05084229 3.93450928 C48.49865691 3.93129644 46.94647184 3.92793235 45.39428711 3.92442322 C42.13591816 3.91842826 38.87757574 3.91658359 35.61920166 3.91717529 C31.45189094 3.91727669 27.28475145 3.90364923 23.11748123 3.88640308 C19.90892767 3.87525932 16.70041511 3.87325685 13.49184418 3.87378502 C11.95611737 3.87260754 10.42038942 3.86819877 8.8846817 3.86045265 C6.73063867 3.85060896 4.57696206 3.85354833 2.4229126 3.85955811 C1.1987262 3.85813309 -0.02546021 3.85670807 -1.28674316 3.85523987 C-4.72958952 4.10815711 -7.41134495 4.9657404 -10.65228271 6.10247803 C-11.97228271 6.10247803 -13.29228271 6.10247803 -14.65228271 6.10247803 C-14.65228271 6.76247803 -14.65228271 7.42247803 -14.65228271 8.10247803 C-15.25814209 8.28681396 -15.86400146 8.4711499 -16.48822021 8.66107178 C-24.04893239 11.27824138 -29.02665757 15.50079171 -34.65228271 21.10247803 C-34.98228271 20.44247803 -35.31228271 19.78247803 -35.65228271 19.10247803 C-34.90228271 17.03997803 -34.90228271 17.03997803 -33.65228271 15.10247803 C-32.66228271 14.77247803 -31.67228271 14.44247803 -30.65228271 14.10247803 C-29.84790771 13.11247803 -29.04353271 12.12247803 -28.21478271 11.10247803 C-25.71622688 8.17733948 -25.21381193 7.61126792 -21.65228271 7.10247803 C-21.32228271 6.44247803 -20.99228271 5.78247803 -20.65228271 5.10247803 C-17.81634704 4.32611134 -15.02397103 3.65003782 -12.15228271 3.03997803 C-8.05571045 2.14985045 -3.90459181 0.15086433 0 0 Z " fill="#EA8B41" transform="translate(302.65228271484375,293.89752197265625)"/>
<path d="M0 0 C0.495 1.485 0.495 1.485 1 3 C-0.59438099 5.14244945 -2.19928977 7.04117863 -4 9 C-9.50387391 15.12362037 -9.50387391 15.12362037 -14 22 C-15.5625 24.3125 -15.5625 24.3125 -17 26 C-17.66 26 -18.32 26 -19 26 C-19.433125 27.11375 -19.433125 27.11375 -19.875 28.25 C-21 31 -21 31 -22.0625 32.875 C-23.37440475 35.84865076 -23.60524225 38.78554406 -24 42 C-24.65237458 46.34916388 -26.21664905 49.98746036 -28 54 C-29.07957436 57.23872309 -29.56113497 60.31164211 -30.0625 63.6875 C-30.23910156 64.86699219 -30.41570312 66.04648438 -30.59765625 67.26171875 C-30.73042969 68.16535156 -30.86320313 69.06898438 -31 70 C-31.66 70 -32.32 70 -33 70 C-32.9278125 71.11375 -32.855625 72.2275 -32.78125 73.375 C-32.14913979 83.59918553 -31.87441121 93.75753619 -32 104 C-34.16874252 103.49396008 -35.99967627 103.00016187 -38 102 C-37.505 101.01 -37.505 101.01 -37 100 C-35.68 100.66 -34.36 101.32 -33 102 C-33.06856201 101.27441895 -33.13712402 100.54883789 -33.20776367 99.80126953 C-35.69569163 72.03536992 -33.18394938 48.85314712 -20 24 C-19.34 24 -18.68 24 -18 24 C-17.94328125 23.3090625 -17.8865625 22.618125 -17.828125 21.90625 C-16.71445757 17.99790769 -14.39393888 15.47529414 -11.75 12.5 C-11.27175781 11.94441406 -10.79351562 11.38882813 -10.30078125 10.81640625 C-7.33513313 7.40068687 -4.23427781 4.16546339 -1 1 C-0.67 0.67 -0.34 0.34 0 0 Z " fill="#ECCB81" transform="translate(201,114)"/>
<path d="M0 0 C0 4 0 4 -1.0625 5.875 C-2.43364241 8.9829228 -2.00245138 10.79215558 -1 14 C1.0098357 16.59121904 1.0098357 16.59121904 4 18 C7.65521903 17.93697898 9.99588117 17.86561968 12.8125 15.4375 C13.204375 14.963125 13.59625 14.48875 14 14 C14.66 14 15.32 14 16 14 C16 17.63 16 21.26 16 25 C15.67 25 15.34 25 15 25 C14.505 21.04 14.505 21.04 14 17 C13.484375 17.495 12.96875 17.99 12.4375 18.5 C9.0870925 20.56178923 6.87608446 20.40800889 3 20 C0.0625 18.625 0.0625 18.625 -2 17 C-2 16.34 -2 15.68 -2 15 C-3.32 15.33 -4.64 15.66 -6 16 C-6 15.01 -6 14.02 -6 13 C-6.66 13.061875 -7.32 13.12375 -8 13.1875 C-12.09084054 12.93182247 -15.20666984 11.54304956 -19 10 C-19.66 14.62 -20.32 19.24 -21 24 C-21.33 24 -21.66 24 -22 24 C-22.41407374 16.23995144 -21.86195314 11.51611386 -16.8125 5.3125 C-11.73237047 1.13550461 -6.60153007 -0.49511476 0 0 Z " fill="#F67622" transform="translate(182,321)"/>
<path d="M0 0 C0.66 0 1.32 0 2 0 C0.92200605 2.16100182 -0.16167 4.31880719 -1.25390625 6.47265625 C-1.68574219 7.32730469 -2.11757813 8.18195313 -2.5625 9.0625 C-3.21412109 10.34833984 -3.21412109 10.34833984 -3.87890625 11.66015625 C-8.0515566 20.36892824 -7.440293 34.04687116 -4.5625 43.125 C-0.25778381 52.67937008 6.79149904 58.54002565 16.10546875 62.94140625 C21.01526663 64.73702734 25.7998485 65.12620807 30.99853516 65.16113281 C32.16059479 65.17074036 33.32265442 65.1803479 34.51992798 65.19024658 C35.76374237 65.19449646 37.00755676 65.19874634 38.2890625 65.203125 C39.58387543 65.20882507 40.87868835 65.21452515 42.21273804 65.22039795 C44.95123686 65.23087195 47.68970666 65.23673732 50.42822266 65.24023438 C53.90439198 65.24569528 57.38016493 65.26968641 60.85621071 65.29820633 C64.20881864 65.32153756 67.56137778 65.32329617 70.9140625 65.328125 C72.76156601 65.3466452 72.76156601 65.3466452 74.64639282 65.36553955 C82.51114987 65.34555356 89.47066039 64.27922493 97 62 C97 62.66 97 63.32 97 64 C88.95242095 67.33592445 81.47379138 67.45736101 72.8515625 67.43359375 C71.38861857 67.43816573 69.92567679 67.44347429 68.46273804 67.44947815 C65.40833774 67.45837033 62.35419943 67.4560316 59.29980469 67.44604492 C55.41428681 67.43456944 51.52967976 67.45476387 47.64428139 67.48396206 C44.62592973 67.50244167 41.60779155 67.50200829 38.58939743 67.49632454 C37.15827534 67.49617271 35.72713748 67.50210105 34.2960701 67.51461601 C22.92491545 67.6000606 12.90603387 66.17917532 3.84765625 58.83203125 C-4.98381848 50.0752413 -9.11217827 40.02519881 -9.1875 27.6875 C-9.03915524 16.75943578 -6.47356306 9.02329191 0 0 Z " fill="#DFDFDF" transform="translate(279,326)"/>
<path d="M0 0 C2.8125 0.1875 2.8125 0.1875 6 1 C7.85233285 3.40803271 9 4.92741925 9 8 C9.99 8.33 10.98 8.66 12 9 C12.68486725 10.32407669 13.34870203 11.65909241 14 13 C16.35633233 15.66037521 17.59218586 16.86406195 21 18 C21 18.66 21 19.32 21 20 C23.58508883 21.29254442 25.0630815 21.87230789 28 22 C30.14551457 20.92937543 32.06344891 19.68684422 34.03515625 18.32421875 C36 17 36 17 38.18359375 15.95703125 C40.1766832 15.13233929 40.1766832 15.13233929 41 13 C41.91072266 12.58621094 41.91072266 12.58621094 42.83984375 12.1640625 C46.32981715 10.28338967 48.06243626 7.08110336 50.31640625 3.8984375 C50.87199219 3.27195312 51.42757812 2.64546875 52 2 C52.99 2 53.98 2 55 2 C53.44164696 5.58337865 51.27425709 8.21218109 48.6875 11.125 C47.92824219 11.99382812 47.16898437 12.86265625 46.38671875 13.7578125 C43.97373346 16.02467593 42.12938608 17.01410492 39 18 C39 18.66 39 19.32 39 20 C36.00820856 22.73350729 32.87835813 23.93158705 29.0625 25.1875 C28.04285156 25.53167969 27.02320313 25.87585938 25.97265625 26.23046875 C23.16173879 26.95813069 20.88454639 27.15405496 18 27 C17.62488281 26.11957031 17.24976563 25.23914063 16.86328125 24.33203125 C16.35152344 23.17058594 15.83976562 22.00914062 15.3125 20.8125 C14.81363281 19.66394531 14.31476563 18.51539063 13.80078125 17.33203125 C11.91196914 13.83711427 9.90238966 11.68291883 7 9 C5.71399789 7.59708861 4.4415034 6.18158558 3.1875 4.75 C2.58292969 4.06421875 1.97835938 3.3784375 1.35546875 2.671875 C0 1 0 1 0 0 Z M21 22 C22 24 22 24 22 24 Z " fill="#E78A4E" transform="translate(393,308)"/>
<path d="M0 0 C1.48828125 1.30078125 1.48828125 1.30078125 3 3 C3.1875 6.1875 3.1875 6.1875 3 9 C3.66 9 4.32 9 5 9 C6.39679811 46.20640378 6.39679811 46.20640378 -1 61 C-0.2265625 60.80664062 0.546875 60.61328125 1.34375 60.4140625 C4.5625 59.609375 7.78125 58.8046875 11 58 C11.62745117 57.82210937 12.25490234 57.64421875 12.90136719 57.4609375 C17.75692915 56.1260751 22.22297557 55.68367121 27.25 55.75 C27.9821875 55.75531738 28.714375 55.76063477 29.46875 55.76611328 C35.6841768 55.87341632 42.01380913 56.21734757 48 58 C48.33 58.66 48.66 59.32 49 60 C47.33388095 60.042721 45.66617115 60.04063832 44 60 C43.67 59.67 43.34 59.34 43 59 C31.39299203 56.99109477 17.78958755 56.60520622 7 62 C5.45976004 62.06950541 3.91665012 62.08452357 2.375 62.0625 C1.14910156 62.04896484 1.14910156 62.04896484 -0.1015625 62.03515625 C-0.72804688 62.02355469 -1.35453125 62.01195312 -2 62 C-2.87840996 58.90279155 -2.99435406 57.09354597 -2 54 C-1.34 54 -0.68 54 0 54 C-0.01160156 53.21753906 -0.02320313 52.43507812 -0.03515625 51.62890625 C-0.04417969 50.61699219 -0.05320312 49.60507813 -0.0625 48.5625 C-0.07410156 47.55316406 -0.08570313 46.54382813 -0.09765625 45.50390625 C0 43 0 43 1 42 C1.38887534 38.55677932 1.47570277 35.08595581 1.625 31.625 C1.66931152 30.61800049 1.71362305 29.61100098 1.75927734 28.57348633 C2.01341186 21.95258529 1.93676067 15.56861096 1 9 C0.80876574 7.27124233 0.62110209 5.54208489 0.4375 3.8125 C0.293125 2.554375 0.14875 1.29625 0 0 Z " fill="#EAC18E" transform="translate(373,170)"/>
<path d="M0 0 C0.98120464 3.05263664 0.98120464 4.94736336 0 8 C-0.66 8 -1.32 8 -2 8 C-2 10.64 -2 13.28 -2 16 C-2.66 16 -3.32 16 -4 16 C-3.443125 17.85625 -3.443125 17.85625 -2.875 19.75 C-1.76901026 23.43663245 -2.3200753 24.6401506 -4 28 C-4.28878735 30.40837755 -4.49045026 32.82810468 -4.625 35.25 C-4.69976562 36.51328125 -4.77453125 37.7765625 -4.8515625 39.078125 C-4.90054688 40.04234375 -4.94953125 41.0065625 -5 42 C-4.34 42 -3.68 42 -3 42 C-3.03480469 42.97839844 -3.03480469 42.97839844 -3.0703125 43.9765625 C-3.17645843 49.1170582 -2.95645059 53.16641618 -1 58 C-0.855625 58.721875 -0.71125 59.44375 -0.5625 60.1875 C-0.12938438 62.0894315 -0.12938438 62.0894315 1.39453125 63.3671875 C3.11907672 65.12110479 4.1273958 66.75512393 5.25 68.9375 C5.78367187 69.94103516 5.78367187 69.94103516 6.328125 70.96484375 C7.12634 73.38269269 6.82707306 74.63011757 6 77 C5.15115234 75.50146484 5.15115234 75.50146484 4.28515625 73.97265625 C3.5443558 72.66922254 2.80346575 71.36583975 2.0625 70.0625 C1.68931641 69.40314453 1.31613281 68.74378906 0.93164062 68.06445312 C-0.76962813 64.84167167 -0.76962813 64.84167167 -3 62 C-3.04080783 60.00041636 -3.04254356 57.99954746 -3 56 C-3.66 56 -4.32 56 -5 56 C-9.96248833 37.62697772 -9.76240921 19.24852623 -1 2 C-0.67 1.34 -0.34 0.68 0 0 Z " fill="#E99E5F" transform="translate(49,232)"/>
<path d="M0 0 C0 4 0 4 -1 6 C-1.68741795 11.76867355 -1.68741795 11.76867355 1.0625 16.5625 C4.89147772 18.43625505 6.93334276 18.12962701 11 17 C12.79385992 15.5420814 12.79385992 15.5420814 14 14 C14.66 14 15.32 14 16 14 C16.47435261 21.28658309 16.36269121 26.01688063 12 32 C10.25 33.9375 10.25 33.9375 9 35 C8.34 34.67 7.68 34.34 7 34 C7.78375 33.0925 8.5675 32.185 9.375 31.25 C13.39995912 26.35847744 14.24999362 23.499834 14 17 C13.484375 17.495 12.96875 17.99 12.4375 18.5 C9.02095736 20.60248778 6.95351948 20.54531303 3 20 C0.0287156 18.32865252 -2.36341428 16.31864185 -3.875 13.1875 C-4.06947503 9.78418704 -4.0568168 6.40900823 -4 3 C-4.99 3 -5.98 3 -7 3 C-7 4.32 -7 5.64 -7 7 C-9.16874252 6.49396008 -10.99967627 6.00016187 -13 5 C-13.66 6.32 -14.32 7.64 -15 9 C-15.66 9 -16.32 9 -17 9 C-16.34 10.98 -15.68 12.96 -15 15 C-16.32 15.33 -17.64 15.66 -19 16 C-19.33 19.63 -19.66 23.26 -20 27 C-22.57232706 24.42767294 -22.29786466 23.32102308 -22.3125 19.75 C-22.18160732 14.17251737 -21.40867593 10.52424372 -17.453125 6.37890625 C-12.10450005 1.44444473 -7.34831761 -0.34991989 0 0 Z " fill="#BE6229" transform="translate(349,321)"/>
<path d="M0 0 C3.77537588 0.01861013 7.55051012 0.02050657 11.32592773 0.02026367 C13.73022675 0.02516782 16.1345241 0.03099125 18.53881836 0.0378418 C19.66567551 0.03895462 20.79253265 0.04006744 21.95353699 0.04121399 C22.98674576 0.04759384 24.01995453 0.05397369 25.08447266 0.06054688 C26.44840401 0.06626457 26.44840401 0.06626457 27.83988953 0.07209778 C30.02709961 0.20581055 30.02709961 0.20581055 32.02709961 1.20581055 C32.02709961 1.86581055 32.02709961 2.52581055 32.02709961 3.20581055 C30.77588318 3.21794083 30.77588318 3.21794083 29.49938965 3.23031616 C21.61389939 3.30846271 13.72857521 3.39581304 5.84329987 3.49333763 C1.7900175 3.54314813 -2.26324072 3.58947869 -6.31665039 3.62768555 C-10.23306584 3.66473201 -14.14927142 3.71114271 -18.06550598 3.76387405 C-19.55487869 3.78231568 -21.04429621 3.79746083 -22.53373718 3.80915451 C-29.94372885 3.86937998 -36.83590177 4.04298592 -43.97290039 6.20581055 C-47.47290039 6.33081055 -47.47290039 6.33081055 -49.97290039 6.20581055 C-47.63881239 3.08986835 -45.76034883 1.92429672 -41.99707031 1.38427734 C-40.33871148 1.22280565 -38.67787492 1.0856982 -37.01586914 0.9675293 C-35.64569893 0.854618 -35.64569893 0.854618 -34.24784851 0.73942566 C-22.8483327 -0.09779614 -11.42369356 -0.05845069 0 0 Z " fill="#E39151" transform="translate(165.972900390625,293.794189453125)"/>
<path d="M0 0 C1.50062848 0.00546398 3.00126894 0.00822445 4.50190735 0.00845337 C7.62110223 0.01611294 10.73885917 0.04670682 13.85766602 0.09619141 C17.82483642 0.15861192 21.79064306 0.17703995 25.75825787 0.17998314 C28.84787431 0.18471607 31.93721029 0.20558423 35.02671242 0.23186111 C36.48850063 0.24378724 37.95031855 0.25256383 39.41214561 0.2579155 C47.97403074 0.30550371 55.77028992 0.98740883 63.92578125 3.7890625 C63.92578125 4.4490625 63.92578125 5.1090625 63.92578125 5.7890625 C64.60640625 5.9746875 65.28703125 6.1603125 65.98828125 6.3515625 C71.51568681 9.05646309 76.41602142 14.14210288 78.92578125 19.7890625 C78.43078125 21.2740625 78.43078125 21.2740625 77.92578125 22.7890625 C77.59707031 22.22058594 77.26835937 21.65210938 76.9296875 21.06640625 C70.99656291 11.43512812 64.34401562 6.77027812 53.54083252 3.60302734 C47.51997575 2.2473714 41.62952901 2.21812681 35.48046875 2.2578125 C34.13534263 2.25510677 32.79021843 2.25121547 31.44509888 2.24621582 C28.64989275 2.2403753 25.85520378 2.24870683 23.06005859 2.26757812 C19.50864113 2.29041027 15.95843062 2.27718454 12.40705681 2.25328827 C9.63745295 2.23871856 6.86812756 2.24348595 4.09851456 2.25379944 C2.162826 2.25769701 0.22712581 2.24572877 -1.70852661 2.23327637 C-12.22503878 2.34391417 -20.53259621 4.65661555 -29.07421875 10.7890625 C-29.73421875 10.7890625 -30.39421875 10.7890625 -31.07421875 10.7890625 C-29.56527581 6.26223367 -26.25072324 5.26999152 -22.12203503 3.20208168 C-14.92452404 -0.10937562 -7.77816293 -0.154514 0 0 Z " fill="#E1E0E0" transform="translate(314.07421875,313.2109375)"/>
<path d="M0 0 C1.010625 0.391875 2.02125 0.78375 3.0625 1.1875 C4.0215625 1.5896875 4.0215625 1.5896875 5 2 C5 2.66 5 3.32 5 4 C5.99 4 6.98 4 8 4 C8.99 6.475 8.99 6.475 10 9 C5.50202887 7.31326082 1.27113698 5.18326108 -3 3 C-3 2.34 -3 1.68 -3 1 C-3.69867188 0.93941406 -4.39734375 0.87882812 -5.1171875 0.81640625 C-6.02726562 0.73261719 -6.93734375 0.64882813 -7.875 0.5625 C-8.77992188 0.48128906 -9.68484375 0.40007812 -10.6171875 0.31640625 C-13 0 -13 0 -15 -1 C-17.03160472 -1.12037961 -19.0670744 -1.17739122 -21.10205078 -1.20532227 C-22.38322784 -1.22526749 -23.66440491 -1.24521271 -24.98440552 -1.26576233 C-26.38803994 -1.28274669 -27.79167563 -1.29962549 -29.1953125 -1.31640625 C-30.62735597 -1.3369754 -32.05939337 -1.35797186 -33.49142456 -1.37937927 C-37.26266563 -1.43460403 -41.03396152 -1.48401147 -44.80529785 -1.53222656 C-48.65280036 -1.58243867 -52.50022313 -1.63812624 -56.34765625 -1.69335938 C-63.89837 -1.80094587 -71.44915 -1.90238971 -79 -2 C-79 -2.33 -79 -2.66 -79 -3 C-71.49746601 -3.1548173 -63.9948246 -3.30297992 -56.49199963 -3.4429636 C-53.00704508 -3.50818641 -49.52216262 -3.5755846 -46.03735352 -3.64819336 C-42.01850285 -3.73182912 -37.99952071 -3.80557268 -33.98046875 -3.87890625 C-32.12980049 -3.91945885 -32.12980049 -3.91945885 -30.241745 -3.96083069 C-19.6485305 -4.14118091 -9.93846461 -3.9036855 0 0 Z " fill="#DE9760" transform="translate(383,299)"/>
<path d="M0 0 C0.61875 0.350625 1.2375 0.70125 1.875 1.0625 C2.57625 1.371875 3.2775 1.68125 4 2 C4.66 1.67 5.32 1.34 6 1 C6.5534764 3.07553648 7 4.84365964 7 7 C7.32882152 10.05636102 7.32882152 10.05636102 8 13 C8.66 13.33 9.32 13.66 10 14 C10 14.66 10 15.32 10 16 C10.66 16.33 11.32 16.66 12 17 C12.72159424 18.64363134 13.39351421 20.31050386 14 22 C16.90019491 21.6588006 18.53028981 21.45609997 21 20 C22.55972783 17.47815744 23.67413997 14.97136161 24.76171875 12.21484375 C25.17035156 11.48394531 25.57898438 10.75304687 26 10 C27.32 9.67 28.64 9.34 30 9 C28.02 13.95 26.04 18.9 24 24 C19.71 24 15.42 24 11 24 C10.45730469 22.89140625 9.91460937 21.7828125 9.35546875 20.640625 C8.63302726 19.17697731 7.91035908 17.7134415 7.1875 16.25 C6.83107422 15.52039063 6.47464844 14.79078125 6.10742188 14.0390625 C4.63679699 11.07082879 3.27740278 8.35674858 1.23828125 5.734375 C0 4 0 4 0 0 Z " fill="#E8843F" transform="translate(232,313)"/>
<path d="M0 0 C-1.74863807 2.17569819 -2.60251219 2.93879847 -5.41015625 3.37109375 C-7.1809248 3.41542816 -8.95176232 3.45708728 -10.72265625 3.49609375 C-11.47417969 3.66238281 -12.22570312 3.82867187 -13 4 C-14.19075978 5.94907657 -14.19075978 5.94907657 -15 8 C-17.79597286 8.86029934 -20.07171074 9 -23 9 C-24.4216319 12.3171411 -25.39009109 15.44219804 -26 19 C-26.99 19 -27.98 19 -29 19 C-29 18.01 -29 17.02 -29 16 C-29.99 16 -30.98 16 -32 16 C-32 16.66 -32 17.32 -32 18 C-34.64738916 19.4606285 -35.89448334 20 -39 20 C-39 19.34 -39 18.68 -39 18 C-31.77957897 11.44543912 -24.44684168 5.79216996 -15 3 C-14.12214844 2.70609375 -13.24429688 2.4121875 -12.33984375 2.109375 C-8.06076431 0.72292805 -4.52964453 -0.1603414 0 0 Z " fill="#F5A745" transform="translate(101,196)"/>
<path d="M0 0 C1.69500077 1.64363711 3.35391966 3.30796311 5 5 C5.50789063 5.51175781 6.01578125 6.02351563 6.5390625 6.55078125 C19.10962398 19.98519648 27.01094974 37.30070499 32 54.8125 C32.22018799 55.58384277 32.44037598 56.35518555 32.66723633 57.14990234 C34.12745769 62.61762692 34.12745769 62.61762692 33 66 C31.52363028 61.63391828 30.06587023 57.26786055 28.74609375 52.8515625 C24.65722455 39.46766588 19.12685556 25.78451095 10 15 C9.29875 13.9275 8.5975 12.855 7.875 11.75 C6.28622262 8.94016618 6.28622262 8.94016618 4 8 C4 7.34 4 6.68 4 6 C3.34 6 2.68 6 2 6 C2 5.34 2 4.68 2 4 C1.34 4 0.68 4 0 4 C-0.33 3.01 -0.66 2.02 -1 1 C-0.67 0.67 -0.34 0.34 0 0 Z " fill="#E0E0E0" transform="translate(360,106)"/>
<path d="M0 0 C0.66 0.99 1.32 1.98 2 3 C1.2884375 4.3921875 1.2884375 4.3921875 0.5625 5.8125 C-1.55267379 10.12745453 -2.36015997 13.95841049 -3.0625 18.6875 C-3.23910156 19.86699219 -3.41570312 21.04648438 -3.59765625 22.26171875 C-3.73042969 23.16535156 -3.86320313 24.06898438 -4 25 C-4.66 25 -5.32 25 -6 25 C-5.9278125 26.11375 -5.855625 27.2275 -5.78125 28.375 C-5.14913979 38.59918553 -4.87441121 48.75753619 -5 59 C-7.16874252 58.49396008 -8.99967627 58.00016187 -11 57 C-10.67 56.34 -10.34 55.68 -10 55 C-8.68 55.66 -7.36 56.32 -6 57 C-6.06856201 56.27441895 -6.13712402 55.54883789 -6.20776367 54.80126953 C-7.55238427 39.79496655 -8.48012811 24.36786723 -5.1875 9.5625 C-4.93963745 8.44560791 -4.93963745 8.44560791 -4.68676758 7.30615234 C-3.72334054 3.49506168 -3.37896653 2.25264435 0 0 Z " fill="#E0BA83" transform="translate(174,159)"/>
<path d="M0 0 C-1.5134793 3.41120981 -3.53415389 5.97055442 -5.9375 8.8125 C-9.17197803 12.77942324 -11.29850974 16.19579222 -13 21 C-13.33 21.66 -13.66 22.32 -14 23 C-18.97957189 22.52575506 -22.14967219 21.22353026 -26 18 C-26.875 15.25 -26.875 15.25 -27 13 C-25 13 -25 13 -23.4375 14.375 C-22 16 -22 16 -21 18 C-20.01 17.67 -19.02 17.34 -18 17 C-18 17.66 -18 18.32 -18 19 C-17.34 19 -16.68 19 -16 19 C-15.67 18.34 -15.34 17.68 -15 17 C-14.2575 15.8553125 -14.2575 15.8553125 -13.5 14.6875 C-11.86816649 12.11868841 -11.86816649 12.11868841 -11.5625 9.375 C-11 7 -11 7 -9.0625 5.1875 C-7 4 -7 4 -5 4 C-5 3.34 -5 2.68 -5 2 C-2 0 -2 0 0 0 Z " fill="#E8843F" transform="translate(102,309)"/>
<path d="M0 0 C0.33 0 0.66 0 1 0 C1 2.31 1 4.62 1 7 C1.7734375 6.80664062 2.546875 6.61328125 3.34375 6.4140625 C6.5625 5.609375 9.78125 4.8046875 13 4 C13.62745117 3.82210937 14.25490234 3.64421875 14.90136719 3.4609375 C19.75692915 2.1260751 24.22297557 1.68367121 29.25 1.75 C29.9821875 1.75531738 30.714375 1.76063477 31.46875 1.76611328 C37.6841768 1.87341632 44.01380913 2.21734757 50 4 C50.495 4.99 50.495 4.99 51 6 C49.33388095 6.042721 47.66617115 6.04063832 46 6 C45.505 5.505 45.505 5.505 45 5 C33.39299203 2.99109477 19.78958755 2.60520622 9 8 C7.45976004 8.06950541 5.91665012 8.08452357 4.375 8.0625 C3.14910156 8.04896484 3.14910156 8.04896484 1.8984375 8.03515625 C0.95871094 8.01775391 0.95871094 8.01775391 0 8 C-0.87840996 4.90279155 -0.99435406 3.09354597 0 0 Z " fill="#E4AC6C" transform="translate(371,224)"/>
<path d="M0 0 C7.583161 0.51411261 14.98856541 1.9742321 22 5 C22.33 5.99 22.66 6.98 23 8 C23.78375 8.144375 24.5675 8.28875 25.375 8.4375 C28 9 28 9 30 10 C30 10.66 30 11.32 30 12 C30.99 12.33 31.98 12.66 33 13 C32.34 13.33 31.68 13.66 31 14 C30.29875 13.54625 29.5975 13.0925 28.875 12.625 C25.14662436 10.51765725 22.2476193 10.35996774 18 10 C18 9.34 18 8.68 18 8 C17.34 7.67 16.68 7.34 16 7 C16 6.34 16 5.68 16 5 C15.18015625 4.89042969 14.3603125 4.78085938 13.515625 4.66796875 C12.43796875 4.50941406 11.3603125 4.35085937 10.25 4.1875 C9.18265625 4.03667969 8.1153125 3.88585937 7.015625 3.73046875 C3.94548906 2.98679593 2.33919522 2.07234528 0 0 Z " fill="#EBB979" transform="translate(124,196)"/>
<path d="M0 0 C0.87720703 -0.020625 1.75441406 -0.04125 2.65820312 -0.0625 C8.29481107 -0.0962269 12.1728023 0.65029314 17.1875 3.25 C17.1875 3.91 17.1875 4.57 17.1875 5.25 C15.97707031 4.76273438 15.97707031 4.76273438 14.7421875 4.265625 C10.47767302 3.04719229 6.71813126 2.95587014 2.3125 3 C1.54808594 2.99226562 0.78367187 2.98453125 -0.00390625 2.9765625 C-5.2632044 2.9944209 -9.75104672 3.83019191 -14.8125 5.25 C-16.80851306 5.6064309 -18.807345 5.94922675 -20.8125 6.25 C-20.8125 5.59 -20.8125 4.93 -20.8125 4.25 C-17.3475 3.755 -17.3475 3.755 -13.8125 3.25 C-13.8125 2.59 -13.8125 1.93 -13.8125 1.25 C-9.21355013 -0.05483354 -4.75070238 0.02756027 0 0 Z " fill="#F1AB68" transform="translate(116.8125,250.75)"/>
<path d="M0 0 C0.66 0.33 1.32 0.66 2 1 C1.57847656 1.39832031 1.15695313 1.79664063 0.72265625 2.20703125 C0.17480469 2.73683594 -0.37304688 3.26664062 -0.9375 3.8125 C-1.75541016 4.59560547 -1.75541016 4.59560547 -2.58984375 5.39453125 C-4.23519092 7.05812198 -4.23519092 7.05812198 -5 10 C3.25 10 11.5 10 20 10 C20 10.33 20 10.66 20 11 C18.22496094 11.07347656 18.22496094 11.07347656 16.4140625 11.1484375 C8.127346 11.52709855 0.07052303 11.9256487 -8 14 C-9.11761719 14.2784375 -9.11761719 14.2784375 -10.2578125 14.5625 C-10.83273438 14.706875 -11.40765625 14.85125 -12 15 C-10.57641609 10.45925821 -8.27867927 7.96026853 -4.875 4.6875 C-3.96492188 3.80449219 -3.05484375 2.92148437 -2.1171875 2.01171875 C-1.41851562 1.34785156 -0.71984375 0.68398438 0 0 Z " fill="#FBD5AE" transform="translate(96,257)"/>
<path d="M0 0 C0.81662109 -0.01611328 1.63324219 -0.03222656 2.47460938 -0.04882812 C8.20600562 -0.05339497 12.43334733 1.02098808 17.6875 3.3125 C17.6875 3.9725 17.6875 4.6325 17.6875 5.3125 C12.03222511 4.41279718 12.03222511 4.41279718 9.875 3.78515625 C2.42189618 2.17475346 -5.83275961 3.20439031 -13.3125 4.3125 C-14.3025 4.3125 -15.2925 4.3125 -16.3125 4.3125 C-11.66099619 -0.33900381 -6.18702892 -0.02407404 0 0 Z " fill="#F2B56F" transform="translate(317.3125,224.6875)"/>
<path d="M0 0 C2.1116769 2.1116769 2.56595124 3.21569542 3.47265625 5.9921875 C3.73240234 6.77980469 3.99214844 7.56742188 4.25976562 8.37890625 C4.52466797 9.20261719 4.78957031 10.02632812 5.0625 10.875 C5.33126953 11.69097656 5.60003906 12.50695312 5.87695312 13.34765625 C7.88841736 19.49741973 9.12596328 24.44990941 9 31 C8.67 31 8.34 31 8 31 C7.7525 29.96875 7.505 28.9375 7.25 27.875 C6.45655625 25.02088581 5.73176548 23.62609734 3.9375 21.125 C1.40509328 17.04047304 1.29221354 13.70617591 1 9 C0.82092569 7.31158509 0.63372883 5.62400726 0.4375 3.9375 C0.293125 2.638125 0.14875 1.33875 0 0 Z " fill="#EBC889" transform="translate(368,148)"/>
<path d="M0 0 C0.99 1.0209375 0.99 1.0209375 2 2.0625 C4.24721811 4.31610226 6.59381672 6.41737546 9 8.5 C12.1374103 11.22740781 15.19329268 13.93016387 18 17 C18 17.66 18 18.32 18 19 C18.70125 19.268125 19.4025 19.53625 20.125 19.8125 C23.18920711 21.07815076 26.11546292 22.36105848 29 24 C29.33 24.99 29.66 25.98 30 27 C18.59708211 23.69266018 6.50681424 11.87833184 0 2 C0 1.34 0 0.68 0 0 Z " fill="#E2E2E2" transform="translate(40,316)"/>
<path d="M0 0 C0.66 0.99 1.32 1.98 2 3 C1.2884375 4.3921875 1.2884375 4.3921875 0.5625 5.8125 C-1.55267379 10.12745453 -2.36015997 13.95841049 -3.0625 18.6875 C-3.23910156 19.86699219 -3.41570312 21.04648438 -3.59765625 22.26171875 C-3.73042969 23.16535156 -3.86320313 24.06898438 -4 25 C-4.33 25 -4.66 25 -5 25 C-5.56618455 7.72088627 -5.56618455 7.72088627 -2 1 C-1.34 0.67 -0.68 0.34 0 0 Z " fill="#EDBB64" transform="translate(174,159)"/>
<path d="M0 0 C0.804375 1.2065625 0.804375 1.2065625 1.625 2.4375 C5.40314524 6.3251567 10.63003629 5.70719425 15.72265625 5.859375 C18.36432886 5.97272448 20.49502173 6.22539325 23 7 C23 7.99 23 8.98 23 10 C22.10861328 9.90912109 22.10861328 9.90912109 21.19921875 9.81640625 C14.80300071 9.16982122 8.40328386 8.57215654 2 8 C0.74335022 5.09399739 0 3.20395416 0 0 Z " fill="#EF9B4A" transform="translate(351,245)"/>
<path d="M0 0 C2.16376042 1.69337772 2.9455471 2.80272491 3.68359375 5.4765625 C4.1301135 10.44891821 4.10434558 15.38571965 4.0625 20.375 C4.05798828 21.39722656 4.05347656 22.41945312 4.04882812 23.47265625 C4.037103 25.98183194 4.02069176 28.4908849 4 31 C3.34 31.33 2.68 31.66 2 32 C2.01160156 31.26136719 2.02320313 30.52273437 2.03515625 29.76171875 C2.09733872 22.77063218 1.76497746 15.94682236 1 9 C0.90460938 8.113125 0.80921875 7.22625 0.7109375 6.3125 C0.48071227 4.20758365 0.24140402 2.10366361 0 0 Z " fill="#ECB460" transform="translate(373,170)"/>
<path d="M0 0 C2.3125 0.625 2.3125 0.625 5 2 C6.6875 4.9375 6.6875 4.9375 8 8 C8.99 9.485 8.99 9.485 10 11 C10.4140625 13.48046875 10.4140625 13.48046875 10.625 16.1875 C10.69976562 17.08855469 10.77453125 17.98960937 10.8515625 18.91796875 C10.92503906 19.94857422 10.92503906 19.94857422 11 21 C8.84239738 18.84239738 7.89221819 16.98400001 6.5625 14.25 C6.12550781 13.35667969 5.68851562 12.46335938 5.23828125 11.54296875 C4.82964844 10.70378906 4.42101562 9.86460937 4 9 C3.4225 7.865625 2.845 6.73125 2.25 5.5625 C1 3 1 3 0 0 Z " fill="#EDC676" transform="translate(358,135)"/>
<path d="M0 0 C1.485 0.99 1.485 0.99 3 2 C3.66 1.67 4.32 1.34 5 1 C5.433125 1.495 5.86625 1.99 6.3125 2.5 C7.99740483 4.33218192 7.99740483 4.33218192 11 4 C11 4.66 11 5.32 11 6 C16.02439385 7.67479795 20.90085558 7.23615622 26 6 C25 8 25 8 23.03125 8.73828125 C16.56132303 10.20599617 11.94525178 10.08020664 6 7 C3.68689144 5.47382528 1.98011056 3.98011056 0 2 C0 1.34 0 0.68 0 0 Z " fill="#C65E23" transform="translate(330,350)"/>
<path d="M0 0 C3.73361343 3.21863227 5.23803998 6.43492176 7 11 C7.391875 11.825 7.78375 12.65 8.1875 13.5 C9.23756424 16.73096689 9.13228926 19.62662385 9 23 C4.125 18.25 4.125 18.25 3 16 C3.99 16 4.98 16 6 16 C5.67 15.34 5.34 14.68 5 14 C4.960008 12.00039988 4.95653201 9.99952758 5 8 C4.34 8 3.68 8 3 8 C3 7.34 3 6.68 3 6 C2.34 6 1.68 6 1 6 C0.67 4.02 0.34 2.04 0 0 Z " fill="#FEEBD5" transform="translate(400,274)"/>
<path d="M0 0 C0.66 0 1.32 0 2 0 C2.33 0.66 2.66 1.32 3 2 C3.99 2.66 4.98 3.32 6 4 C6 4.66 6 5.32 6 6 C8.30935087 8.62788203 9.63983107 9.87994369 13 11 C13 11.99 13 12.98 13 14 C14.32 14.33 15.64 14.66 17 15 C17 15.66 17 16.32 17 17 C13.6496302 16.42235003 12.31766228 15.41423154 10 13 C9.38125 12.731875 8.7625 12.46375 8.125 12.1875 C4.9094599 10.39058053 3.14516043 7.95684275 1 5 C0.1875 2.125 0.1875 2.125 0 0 Z " fill="#E68A44" transform="translate(55,304)"/>
<path d="M0 0 C0.98120464 3.05263664 0.98120464 4.94736336 0 8 C-0.66 8 -1.32 8 -2 8 C-2 10.64 -2 13.28 -2 16 C-2.66 16 -3.32 16 -4 16 C-4.12375 17.134375 -4.2475 18.26875 -4.375 19.4375 C-4.58125 20.613125 -4.7875 21.78875 -5 23 C-5.66 23.33 -6.32 23.66 -7 24 C-6.31566996 15.51430752 -4.98514375 7.12163393 0 0 Z " fill="#E8AE73" transform="translate(49,232)"/>
<path d="M0 0 C1 3 1 3 1.25 5.9375 C1.78287617 9.12737857 1.78287617 9.12737857 4.125 11.4375 C7.91688439 13.49830673 9.89418083 13.14050533 14 12 C15.79385992 10.5420814 15.79385992 10.5420814 17 9 C17.66 9 18.32 9 19 9 C19 12.63 19 16.26 19 20 C18.67 20 18.34 20 18 20 C17.67 17.36 17.34 14.72 17 12 C16.484375 12.495 15.96875 12.99 15.4375 13.5 C12.0870925 15.56178923 9.87608446 15.40800889 6 15 C2.83385617 13.66318372 1.41625241 12.6811403 -0.375 9.75 C-1.16797803 6.26089665 -0.68337475 3.48521123 0 0 Z " fill="#BA6028" transform="translate(179,326)"/>
<path d="M0 0 C2.8125 0.1875 2.8125 0.1875 6 1 C7.85233285 3.40803271 9 4.92741925 9 8 C9.99 8.33 10.98 8.66 12 9 C15.11875512 13.12121212 15.11875512 13.12121212 14.6875 16.3125 C14.460625 16.869375 14.23375 17.42625 14 18 C13.608125 17.0925 13.21625 16.185 12.8125 15.25 C10.86247466 11.75340285 9.10412956 10.45442802 6 8 C3.88380411 5.41464747 1.92708619 2.72838319 0 0 Z " fill="#E7975F" transform="translate(393,308)"/>
<path d="M0 0 C0.66 0.33 1.32 0.66 2 1 C2.05834353 4.22909006 2.09371115 7.45804338 2.125 10.6875 C2.15013672 12.05551758 2.15013672 12.05551758 2.17578125 13.45117188 C2.20936169 18.06848227 2.23556185 21.81932331 0 26 C-0.33 26 -0.66 26 -1 26 C-0.67 17.42 -0.34 8.84 0 0 Z " fill="#E9AF7F" transform="translate(455,270)"/>
<path d="M0 0 C-0.66 1.98 -1.32 3.96 -2 6 C-2.33 4.68 -2.66 3.36 -3 2 C-3.99 2 -4.98 2 -6 2 C-6 3.32 -6 4.64 -6 6 C-8.16874252 5.49396008 -9.99967627 5.00016187 -12 4 C-12 4.66 -12 5.32 -12 6 C-13.65 6.33 -15.3 6.66 -17 7 C-15.2920067 4.04982975 -13.90809553 2.2957627 -10.61328125 1.22265625 C-7.02804142 0.50560828 -3.66059385 0 0 0 Z " fill="#E3752C" transform="translate(348,322)"/>
<path d="M0 0 C0.66 0.33 1.32 0.66 2 1 C1.34 1.66 0.68 2.32 0 3 C0.66 4.32 1.32 5.64 2 7 C1.34 7.66 0.68 8.32 0 9 C-2.475 8.01 -2.475 8.01 -5 7 C-5.66 11.62 -6.32 16.24 -7 21 C-7.33 21 -7.66 21 -8 21 C-8.3238762 14.93032007 -8.52214307 10.22248799 -5 5 C-2.3125 2.125 -2.3125 2.125 0 0 Z " fill="#D16A2C" transform="translate(168,324)"/>
<path d="M0 0 C0.66 0.33 1.32 0.66 2 1 C0.02 5.62 -1.96 10.24 -4 15 C-8.29 15 -12.58 15 -17 15 C-17 14.67 -17 14.34 -17 14 C-11.06 13.505 -11.06 13.505 -5 13 C-4.9175 11.5975 -4.835 10.195 -4.75 8.75 C-4.38662079 5.3060329 -4.17621769 4.21893713 -1.9375 1.4375 C-1.298125 0.963125 -0.65875 0.48875 0 0 Z " fill="#E1915B" transform="translate(260,322)"/>
<path d="M0 0 C-2.35326975 1.97674659 -4.28042861 3.1044734 -7.1875 4.1875 C-12.31559872 6.23873949 -16.06111328 10.2397476 -20 14 C-20.33 13.34 -20.66 12.68 -21 12 C-20.25 9.9375 -20.25 9.9375 -19 8 C-18.01 7.67 -17.02 7.34 -16 7 C-15.608125 6.38125 -15.21625 5.7625 -14.8125 5.125 C-11.21347815 0.90545714 -5.42810005 -0.50888438 0 0 Z " fill="#E59860" transform="translate(288,301)"/>
<path d="M0 0 C3.48670834 1.1094072 6.77484237 2.26337666 10 4 C10 4.66 10 5.32 10 6 C10.721875 6.20625 11.44375 6.4125 12.1875 6.625 C15.9255306 8.45248163 17.49246917 10.70438806 20 14 C17.525 13.505 17.525 13.505 15 13 C15 12.01 15 11.02 15 10 C14.01 10 13.02 10 12 10 C12 9.34 12 8.68 12 8 C11.05125 7.690625 10.1025 7.38125 9.125 7.0625 C6 6 6 6 4 5 C4 4.34 4 3.68 4 3 C3.01 3 2.02 3 1 3 C0.67 2.01 0.34 1.02 0 0 Z " fill="#E6A865" transform="translate(422,230)"/>
<path d="M0 0 C0 1.32 0 2.64 0 4 C-0.99 4.33 -1.98 4.66 -3 5 C-3 5.66 -3 6.32 -3 7 C-4.65 7 -6.3 7 -8 7 C-7.34 6.01 -6.68 5.02 -6 4 C-8.00032373 2.99983813 -9.83125748 2.50603992 -12 2 C-7.82262526 0.40861915 -4.46839215 -0.21278058 0 0 Z " fill="#EF7728" transform="translate(182,321)"/>
<path d="M0 0 C0.73605469 0.00451172 1.47210938 0.00902344 2.23046875 0.01367188 C4.02868158 0.02534858 5.82685197 0.04327989 7.625 0.0625 C7.625 0.3925 7.625 0.7225 7.625 1.0625 C6.4184375 1.248125 6.4184375 1.248125 5.1875 1.4375 C4.341875 1.64375 3.49625 1.85 2.625 2.0625 C2.295 2.7225 1.965 3.3825 1.625 4.0625 C0.861875 3.8975 0.09875 3.7325 -0.6875 3.5625 C-5.39068531 2.68748878 -9.68041128 3.44681623 -14.375 4.0625 C-14.375 3.0725 -14.375 2.0825 -14.375 1.0625 C-9.51770355 0.08950844 -4.9249375 -0.05788805 0 0 Z " fill="#F2923E" transform="translate(106.375,267.9375)"/>
<path d="M0 0 C0.66 0.33 1.32 0.66 2 1 C0.625 3 0.625 3 -1 5 C-1.66 5 -2.32 5 -3 5 C-3.33 5.99 -3.66 6.98 -4 8 C-6.0315526 10.418515 -8.07697999 11.81252312 -11 13 C-11.99 13 -12.98 13 -14 13 C-14 12.34 -14 11.68 -14 11 C-12.71484375 9.76318359 -12.71484375 9.76318359 -10.9375 8.3984375 C-10.30585937 7.90859375 -9.67421875 7.41875 -9.0234375 6.9140625 C-8.35570313 6.40617188 -7.68796875 5.89828125 -7 5.375 C-6.33226563 4.859375 -5.66453125 4.34375 -4.9765625 3.8125 C-3.3219811 2.53610864 -1.66152632 1.26733768 0 0 Z " fill="#EAB878" transform="translate(76,203)"/>
<path d="M0 0 C0.99 0.33 1.98 0.66 3 1 C-0.72346836 5.42094803 -4.29521038 9.57833482 -9 13 C-9 9.26130751 -8.09514308 8.63449295 -5.625 5.9375 C-4.99851562 5.24527344 -4.37203125 4.55304688 -3.7265625 3.83984375 C-2.50602933 2.53923035 -1.26120903 1.26120903 0 0 Z " fill="#FEEED4" transform="translate(297,232)"/>
<path d="M0 0 C1.32 0.33 2.64 0.66 4 1 C4 1.99 4 2.98 4 4 C4.99 4.33 5.98 4.66 7 5 C7.66 8.3 8.32 11.6 9 15 C12.63 15 16.26 15 20 15 C20 15.33 20 15.66 20 16 C16.04 16 12.08 16 8 16 C7.4225 14.659375 6.845 13.31875 6.25 11.9375 C4.40919534 7.78254091 2.32472158 3.90221122 0 0 Z " fill="#FAC492" transform="translate(344,238)"/>
<path d="M0 0 C-2.53635204 3.12032313 -4.95472469 3.74183634 -8.8125 4.625 C-9.82957031 4.86476562 -10.84664062 5.10453125 -11.89453125 5.3515625 C-14.9202625 5.98335041 -17.94738982 6.51632783 -21 7 C-15.33867351 2.04633932 -7.41441019 -0.20595584 0 0 Z " fill="#E5B56A" transform="translate(101,196)"/>
<path d="M0 0 C2.89932357 2.39509338 3.50168276 4.31245243 4 8 C3.18273437 7.67257812 2.36546875 7.34515625 1.5234375 7.0078125 C-2.59263124 5.83048907 -6.13044334 5.77521838 -10.375 5.875 C-11.11105469 5.88402344 -11.84710938 5.89304687 -12.60546875 5.90234375 C-14.4037888 5.92569856 -16.20193911 5.96156164 -18 6 C-16 4 -16 4 -12.0859375 3.8046875 C-10.51550649 3.81799624 -8.94513779 3.84186398 -7.375 3.875 C-6.57320312 3.88402344 -5.77140625 3.89304687 -4.9453125 3.90234375 C-2.96341477 3.92593777 -0.98167019 3.96180935 1 4 C0.67 2.68 0.34 1.36 0 0 Z " fill="#FACD9F" transform="translate(180,264)"/>
<path d="M0 0 C5.75 -0.125 5.75 -0.125 8 1 C8 1.66 8 2.32 8 3 C8.99 3 9.98 3 11 3 C11.66 4.65 12.32 6.3 13 8 C8.50202887 6.31326082 4.27113698 4.18326108 0 2 C0 1.34 0 0.68 0 0 Z " fill="#E89B64" transform="translate(380,300)"/>
<path d="M0 0 C7.74748754 3.63197058 14.80716433 6.9546128 21 13 C20.01 13.495 20.01 13.495 19 14 C18.34 13.67 17.68 13.34 17 13 C17 12.34 17 11.68 17 11 C16.28199219 10.73316406 15.56398438 10.46632812 14.82421875 10.19140625 C11.965435 8.98541864 9.45246352 7.56301461 6.8125 5.9375 C3.4614921 3.86894235 3.4614921 3.86894235 0 2 C0 1.34 0 0.68 0 0 Z " fill="#E9E8E8" transform="translate(429,213)"/>
<path d="M0 0 C6.83140822 4.24655105 14.5172393 9.27585894 19 16 C15.56766364 15.42545674 14.07241585 14.36603005 11.75 11.8125 C8.60094096 8.4926677 5.26001118 5.8631956 1.50390625 3.26171875 C0.75947266 2.63716797 0.75947266 2.63716797 0 2 C0 1.34 0 0.68 0 0 Z " fill="#EAEAEA" transform="translate(341,90)"/>
<path d="M0 0 C3.99012371 0.55989303 6.5255052 1.75669768 9.8125 4.0625 C10.60269531 4.61035156 11.39289063 5.15820312 12.20703125 5.72265625 C12.79871094 6.14417969 13.39039063 6.56570312 14 7 C12 8 12 8 9.6875 7.36328125 C8.800625 7.01652344 7.91375 6.66976562 7 6.3125 C6.113125 5.97863281 5.22625 5.64476563 4.3125 5.30078125 C1.6944087 3.82810489 1.02707831 2.77194429 0 0 Z " fill="#ECD695" transform="translate(318,98)"/>
<path d="M0 0 C0.66 0.33 1.32 0.66 2 1 C-2.14464583 7.92344247 -7.02099393 15.34033131 -15 18 C-13.85286362 14.55859086 -13.23139865 14.27645398 -10.3125 12.375 C-5.61363303 9.02229492 -2.89206198 4.92965109 0 0 Z " fill="#DBDBDB" transform="translate(392,371)"/>
<path d="M0 0 C0.33 0.66 0.66 1.32 1 2 C1.66 2.33 2.32 2.66 3 3 C3.72159424 4.64363134 4.39351421 6.31050386 5 8 C10.71863052 6.71860673 10.71863052 6.71860673 15 3 C14.67 4.65 14.34 6.3 14 8 C10.98509443 9.00496852 8.95818308 9.10335303 5.8125 9.0625 C4.91144531 9.05347656 4.01039063 9.04445313 3.08203125 9.03515625 C2.39496094 9.02355469 1.70789063 9.01195312 1 9 C0.67 6.03 0.34 3.06 0 0 Z " fill="#EB7831" transform="translate(241,327)"/>
<path d="M0 0 C3.08089673 2.77280706 4.68775452 5.06326356 6 9 C4.68 9.33 3.36 9.66 2 10 C0.68 8.35 -0.64 6.7 -2 5 C-1.34 3.35 -0.68 1.7 0 0 Z " fill="#F48532" transform="translate(404,294)"/>
<path d="M0 0 C0 0.99 0 1.98 0 3 C-1.9765625 4.68359375 -1.9765625 4.68359375 -4.625 6.4375 C-5.98625 7.35015625 -5.98625 7.35015625 -7.375 8.28125 C-8.24125 8.8484375 -9.1075 9.415625 -10 10 C-11.20863479 10.8120515 -12.41703771 11.62444846 -13.625 12.4375 C-14.800625 13.2109375 -14.800625 13.2109375 -16 14 C-16.66 13.67 -17.32 13.34 -18 13 C-15.94005539 11.39245904 -13.87719524 9.7889195 -11.8125 8.1875 C-10.9452832 7.50977539 -10.9452832 7.50977539 -10.06054688 6.81835938 C-6.81747919 4.30818834 -3.57686912 2.02756611 0 0 Z " fill="#E4E4E3" transform="translate(209,86)"/>
<path d="M0 0 C3.06145129 2.04096753 3.74908616 2.70422346 5 6 C5.22705078 8.29003906 5.22705078 8.29003906 5.1953125 10.765625 C5.18886719 11.65507812 5.18242187 12.54453125 5.17578125 13.4609375 C5.15902344 14.38132812 5.14226562 15.30171875 5.125 16.25 C5.11597656 17.18585938 5.10695313 18.12171875 5.09765625 19.0859375 C5.07413636 21.39088657 5.04126853 23.6953116 5 26 C4.67 26 4.34 26 4 26 C3.96261719 25.04480469 3.92523438 24.08960938 3.88671875 23.10546875 C3.47557754 15.01969164 2.55985512 7.74396422 0 0 Z " fill="#F3B072" transform="translate(331,250)"/>
<path d="M0 0 C1.26328125 0.03609375 2.5265625 0.0721875 3.828125 0.109375 C5.27445313 0.17898438 5.27445313 0.17898438 6.75 0.25 C0.98174747 3.30076467 -4.70921737 4.57703913 -11.25 4.25 C-7.85110743 -0.11019552 -5.38491164 -0.19944117 0 0 Z " fill="#EA8E47" transform="translate(127.25,295.75)"/>
<path d="M0 0 C3.61420598 2.29854213 5.06885813 4.55513124 6.8125 8.4375 C7.25207031 9.38496094 7.69164062 10.33242188 8.14453125 11.30859375 C9.03654068 14.1149613 9.04105227 15.29837357 8 18 C7.67 17.01 7.34 16.02 7 15 C6.34 14.67 5.68 14.34 5 14 C3.96484375 11.6015625 3.96484375 11.6015625 2.9375 8.625 C2.59589844 7.64789063 2.25429688 6.67078125 1.90234375 5.6640625 C1.26340405 3.77766911 0.62981934 1.88945801 0 0 Z " fill="#E5AE77" transform="translate(444,246)"/>
<path d="M0 0 C2 0 2 0 3.5625 1.375 C5 3 5 3 6 5 C6.99 4.67 7.98 4.34 9 4 C9 4.66 9 5.32 9 6 C9.66 6 10.32 6 11 6 C11.33 5.34 11.66 4.68 12 4 C12.33 4.99 12.66 5.98 13 7 C11.20741442 6.91306859 9.41584856 6.80489496 7.625 6.6875 C6.62726563 6.62949219 5.62953125 6.57148438 4.6015625 6.51171875 C3.74304688 6.34285156 2.88453125 6.17398437 2 6 C0 3 0 3 0 0 Z " fill="#ED813A" transform="translate(75,322)"/>
<path d="M0 0 C0.5625 1.9375 0.5625 1.9375 1 4 C0.67 4.33 0.34 4.66 0 5 C-0.07244053 7.01964199 -0.08377188 9.04167124 -0.0625 11.0625 C-0.04896484 12.71958984 -0.04896484 12.71958984 -0.03515625 14.41015625 C-0.02355469 15.26480469 -0.01195312 16.11945313 0 17 C-0.66 17.33 -1.32 17.66 -2 18 C-4.1146928 13.77061441 -3.29108563 8.50007794 -2.0625 4.0625 C-1 1 -1 1 0 0 Z " fill="#EB984C" transform="translate(292,256)"/>
<path d="M0 0 C1.32341203 2.43487135 2 3.74270596 2 6.5625 C1 9 1 9 -2.0625 10.8125 C-3.031875 11.204375 -4.00125 11.59625 -5 12 C-4.35550393 8.98782888 -3.34977818 6.48344164 -1.9375 3.75 C-1.57527344 3.04359375 -1.21304688 2.3371875 -0.83984375 1.609375 C-0.56269531 1.07828125 -0.28554687 0.5471875 0 0 Z " fill="#F4C255" transform="translate(182,140)"/>
<path d="M0 0 C2.45391569 3.68087353 2.22802759 6.44355588 2.125 10.6875 C2.11597656 11.38939453 2.10695313 12.09128906 2.09765625 12.81445312 C2.07413704 14.54311525 2.03826713 16.27160145 2 18 C1.67 16.68 1.34 15.36 1 14 C0.34 14 -0.32 14 -1 14 C-0.835 13.175 -0.67 12.35 -0.5 11.5 C0.05896045 7.58727683 0.06807187 3.94816827 0 0 Z " fill="#F2923A" transform="translate(333,258)"/>
<path d="M0 0 C3.97638733 2.8718353 6.51530859 5.76682204 9 10 C9 10.66 9 11.32 9 12 C7.68 11.67 6.36 11.34 5 11 C5 10.34 5 9.68 5 9 C4.34 9 3.68 9 3 9 C2 6 1 3 0 0 Z " fill="#ECCF8E" transform="translate(352,124)"/>
<path d="M0 0 C-3.72026686 3.23501466 -8.29146387 5.57417568 -13 7 C-15.28125 6.609375 -15.28125 6.609375 -17 6 C-11.375 3 -11.375 3 -8 3 C-8 2.34 -8 1.68 -8 1 C-5.29120665 -0.35439668 -2.99066732 -0.06501451 0 0 Z " fill="#F3D26B" transform="translate(237,96)"/>
<path d="M0 0 C6.54988608 0.34348408 12.2218172 0.73407059 18 4 C18.33 4.99 18.66 5.98 19 7 C18.43152344 6.80664062 17.86304688 6.61328125 17.27734375 6.4140625 C13.57882952 5.1668173 9.89621445 3.94692571 6.125 2.9375 C3 2 3 2 0 0 Z " fill="#EBAE81" transform="translate(200,298)"/>
<path d="M0 0 C4.95 0.99 4.95 0.99 10 2 C10 3.32 10 4.64 10 6 C6.97580475 5.41196203 3.98241547 4.77321882 1 4 C0.67 2.68 0.34 1.36 0 0 Z " fill="#F68C32" transform="translate(375,274)"/>
<path d="M0 0 C0.66 0 1.32 0 2 0 C1.35455571 3.48539917 -0.10134397 6.02819057 -2 9 C-0.35 9 1.3 9 3 9 C3 9.33 3 9.66 3 10 C1.02 10 -0.96 10 -3 10 C-3.66 8.68 -4.32 7.36 -5 6 C-4.01 5.67 -3.02 5.34 -2 5 C-1.33820153 3.01954441 -1.33820153 3.01954441 -1 1 C-0.67 0.67 -0.34 0.34 0 0 Z " fill="#F29540" transform="translate(86,263)"/>
<path d="M0 0 C0 3.10551666 -0.5393715 4.35261084 -2 7 C-6.46840411 6.50351065 -7.68987756 6.31012244 -11 3 C-8.03 3.33 -5.06 3.66 -2 4 C-1.34 2.68 -0.68 1.36 0 0 Z " fill="#E6A57B" transform="translate(90,325)"/>
<path d="M0 0 C-0.33 1.32 -0.66 2.64 -1 4 C-1.66 4 -2.32 4 -3 4 C-3 4.99 -3 5.98 -3 7 C-3.99 7 -4.98 7 -6 7 C-6.1875 4.625 -6.1875 4.625 -6 2 C-3 0 -3 0 0 0 Z " fill="#F4903C" transform="translate(160,273)"/>
<path d="M0 0 C2.46800047 1.15173355 4.04783565 2.04783565 6 4 C7.2375 4.433125 7.2375 4.433125 8.5 4.875 C11 6 11 6 12.3125 8.125 C12.6528125 9.053125 12.6528125 9.053125 13 10 C7.65978754 8.49806525 3.86352256 4.82517494 0 1 C0 0.67 0 0.34 0 0 Z " fill="#E59A66" transform="translate(63,316)"/>
<path d="M0 0 C3.96 0 7.92 0 12 0 C11.67 0.99 11.34 1.98 11 3 C9.54077307 2.88590407 8.08259402 2.75834456 6.625 2.625 C5.40683594 2.52058594 5.40683594 2.52058594 4.1640625 2.4140625 C2 2 2 2 0 0 Z " fill="#ED8A3F" transform="translate(198,296)"/>
<path d="M0 0 C6.875 0.875 6.875 0.875 8 2 C10.32817964 2.36760731 12.6618385 2.70241581 15 3 C14.67 3.66 14.34 4.32 14 5 C8.34388537 5.56561146 4.77357872 3.71391278 0 1 C0 0.67 0 0.34 0 0 Z " fill="#F4B678" transform="translate(134,256)"/>
<path d="M0 0 C6.01451379 4.55152395 6.01451379 4.55152395 8 8 C8.1875 10.75 8.1875 10.75 8 13 C8.66 13.33 9.32 13.66 10 14 C9.01 14 8.02 14 7 14 C6.54625 12.865625 6.0925 11.73125 5.625 10.5625 C4.42904194 6.95278308 4.42904194 6.95278308 2 6 C1.27306096 4.02111039 0.60183749 2.02045442 0 0 Z " fill="#F1C867" transform="translate(347,120)"/>
<path d="M0 0 C1.32 0.33 2.64 0.66 4 1 C3.01 1.495 3.01 1.495 2 2 C2.33 2.99 2.66 3.98 3 5 C3.03954234 7.33299825 3.04401732 9.66708189 3 12 C0.50494038 9.50494038 0.64051624 8.32671112 0.375 4.875 C0.30023438 3.96492188 0.22546875 3.05484375 0.1484375 2.1171875 C0.09945313 1.41851562 0.05046875 0.71984375 0 0 Z " fill="#F58832" transform="translate(409,286)"/>
<path d="M0 0 C0.33 0 0.66 0 1 0 C1.09765625 6.15234375 1.09765625 6.15234375 1 8 C0.67 8.33 0.34 8.66 0 9 C-0.23287008 10.68183948 -0.41264166 12.3712416 -0.5625 14.0625 C-0.64628906 14.98160156 -0.73007812 15.90070313 -0.81640625 16.84765625 C-0.87699219 17.55792969 -0.93757813 18.26820313 -1 19 C-1.33 19 -1.66 19 -2 19 C-2.05451714 16.95863605 -2.09302485 14.91684144 -2.125 12.875 C-2.14820313 11.73804688 -2.17140625 10.60109375 -2.1953125 9.4296875 C-1.99672109 5.94242233 -1.2524801 3.2446138 0 0 Z " fill="#FDE5CB" transform="translate(286,245)"/>
<path d="M0 0 C1.47546199 3.83620117 0.54503604 6.2919135 -1 10 C-2.625 12.375 -2.625 12.375 -4 14 C-4.45019307 9.19794054 -2.94434428 5.31181012 -1 1 C-0.67 0.67 -0.34 0.34 0 0 Z " fill="#F3943A" transform="translate(295,252)"/>
<path d="M0 0 C5.56890517 0.47986031 10.67067568 1.29915181 16 3 C16 3.33 16 3.66 16 4 C10.06997733 4.37851209 5.52760359 3.10575375 0 1 C0 0.67 0 0.34 0 0 Z " fill="#E9B168" transform="translate(124,196)"/>
<path d="M0 0 C0.66 0 1.32 0 2 0 C2.2295711 3.36704285 2.33943529 5.41370268 0.625 8.375 C0.08875 8.91125 -0.4475 9.4475 -1 10 C-1.66 10 -2.32 10 -3 10 C-2.01 6.7 -1.02 3.4 0 0 Z " fill="#E9C27B" transform="translate(175,150)"/>
<path d="M0 0 C0.433125 0.474375 0.86625 0.94875 1.3125 1.4375 C3.02309613 3.23686957 3.02309613 3.23686957 6 4 C6 4.66 6 5.32 6 6 C6.66 6.33 7.32 6.66 8 7 C7.01 7.99 6.02 8.98 5 10 C5 9.01 5 8.02 5 7 C4.360625 6.773125 3.72125 6.54625 3.0625 6.3125 C1 5 1 5 0.25 2.375 C0.1675 1.59125 0.085 0.8075 0 0 Z " fill="#F07828" transform="translate(408,322)"/>
<path d="M0 0 C3.49084212 1.08336479 4.05521194 2.1047123 5.8125 5.4375 C7 9 7 9 6 12 C5.18071114 10.75443908 4.36984814 9.50333365 3.5625 8.25 C2.88380859 7.20585937 2.88380859 7.20585937 2.19140625 6.140625 C1.0391991 4.07042986 0.45323018 2.31303676 0 0 Z " fill="#EF9244" transform="translate(401,272)"/>
<path d="M0 0 C1.48828125 1.14453125 1.48828125 1.14453125 3 3 C3.29296875 5.69921875 3.29296875 5.69921875 3.1875 8.6875 C3.16042969 9.68136719 3.13335937 10.67523438 3.10546875 11.69921875 C3.07066406 12.45847656 3.03585938 13.21773438 3 14 C1.20724134 10.88089144 0.65709282 8.32317572 0.375 4.75 C0.30023438 3.85796875 0.22546875 2.9659375 0.1484375 2.046875 C0.09945312 1.37140625 0.05046875 0.6959375 0 0 Z " fill="#E9AA74" transform="translate(42,274)"/>
<path d="M0 0 C0.58265625 0.22558594 1.1653125 0.45117188 1.765625 0.68359375 C-0.6600205 4.322062 -2.10726714 4.58864677 -6.234375 5.68359375 C-7.224375 5.68359375 -8.214375 5.68359375 -9.234375 5.68359375 C-8.16544282 4.64769037 -7.07859012 3.63025433 -5.984375 2.62109375 C-5.38109375 2.05261719 -4.7778125 1.48414063 -4.15625 0.8984375 C-2.234375 -0.31640625 -2.234375 -0.31640625 0 0 Z " fill="#F9E4D3" transform="translate(112.234375,304.31640625)"/>
<path d="M0 0 C0 0.66 0 1.32 0 2 C-1.4096347 2.70180531 -2.82807641 3.38593958 -4.25 4.0625 C-5.03890625 4.44535156 -5.8278125 4.82820313 -6.640625 5.22265625 C-9.25993522 6.08564091 -10.44855176 5.93045933 -13 5 C-4.61290323 0 -4.61290323 0 0 0 Z " fill="#ECD89F" transform="translate(229,97)"/>
<path d="M0 0 C0 3.96 0 7.92 0 12 C-0.99 12.495 -0.99 12.495 -2 13 C-2 10.36 -2 7.72 -2 5 C-2.99 5 -3.98 5 -5 5 C-5 4.34 -5 3.68 -5 3 C-1.42307692 0 -1.42307692 0 0 0 Z " fill="#DD6B28" transform="translate(197,337)"/>
<path d="M0 0 C0 1.32 0 2.64 0 4 C-0.99 4.495 -0.99 4.495 -2 5 C-2 4.01 -2 3.02 -2 2 C-5.3 2.33 -8.6 2.66 -12 3 C-8.48214012 -0.51785988 -4.80656342 -0.10924008 0 0 Z " fill="#BE6930" transform="translate(182,321)"/>
<path d="M0 0 C0 0.66 0 1.32 0 2 C-0.99 2 -1.98 2 -3 2 C-3.226875 2.639375 -3.45375 3.27875 -3.6875 3.9375 C-5 6 -5 6 -7.625 6.75 C-8.800625 6.87375 -8.800625 6.87375 -10 7 C-3.18421053 0 -3.18421053 0 0 0 Z " fill="#FAE6D3" transform="translate(282,304)"/>
<path d="M0 0 C0.33 0 0.66 0 1 0 C0.67 4.29 0.34 8.58 0 13 C-0.99 13 -1.98 13 -3 13 C-2.52060632 8.28596212 -2.03165952 4.33420699 0 0 Z " fill="#F38733" transform="translate(454,283)"/>
<path d="M0 0 C2.912575 0.08566397 4.56798024 0.57910955 6.66796875 2.625 C8.16091772 4.38391375 9.60436262 6.16313019 11 8 C10.67 8.66 10.34 9.32 10 10 C6.66666667 6.66666667 3.33333333 3.33333333 0 0 Z " fill="#FCD8B6" transform="translate(390,278)"/>
<path d="M0 0 C0.66 0.33 1.32 0.66 2 1 C-0.97 3.97 -3.94 6.94 -7 10 C-7 7 -7 7 -5.5625 5.5 C-5.046875 5.005 -4.53125 4.51 -4 4 C-3.67 3.01 -3.34 2.02 -3 1 C-2.01 0.67 -1.02 0.34 0 0 Z " fill="#F5CB60" transform="translate(205,113)"/>
<path d="M0 0 C0.33 0.99 0.66 1.98 1 3 C-1.15343189 6.23014784 -2.27059611 7.75686537 -6 9 C-4.47291037 5.56404834 -2.40072955 2.88087546 0 0 Z " fill="#FBEADA" transform="translate(268,314)"/>
<path d="M0 0 C-2.55068845 2.35448165 -3.71017358 2.98327924 -7.25 3.1875 C-8.1575 3.125625 -9.065 3.06375 -10 3 C-10 3.66 -10 4.32 -10 5 C-10.66 5 -11.32 5 -12 5 C-11.5 3.125 -11.5 3.125 -10 1 C-6.66341121 -0.35018741 -3.32402981 -1.66201491 0 0 Z " fill="#EFAC54" transform="translate(88,202)"/>
<path d="M0 0 C1.32 0.33 2.64 0.66 4 1 C0.535 3.97 0.535 3.97 -3 7 C-3 3.48283697 -2.17554415 2.62878252 0 0 Z " fill="#F1CF6E" transform="translate(216,103)"/>
<path d="M0 0 C-3.74525799 3.74525799 -7.98270909 3.68909949 -13 4 C-12 2 -12 2 -10.0390625 1.11328125 C-9.24242187 0.84902344 -8.44578125 0.58476563 -7.625 0.3125 C-6.83351562 0.04050781 -6.04203125 -0.23148437 -5.2265625 -0.51171875 C-3 -1 -3 -1 0 0 Z " fill="#EBD692" transform="translate(242,93)"/>
<path d="M0 0 C1.31602523 0.61754259 2.62773556 1.24428742 3.9375 1.875 C4.66839844 2.22304688 5.39929688 2.57109375 6.15234375 2.9296875 C8 4 8 4 9 6 C5.20696275 4.99806563 2.28463659 4.18975773 -1 2 C-0.67 1.34 -0.34 0.68 0 0 Z " fill="#EB9851" transform="translate(385,276)"/>
<path d="M0 0 C3.08089673 2.77280706 4.68775452 5.06326356 6 9 C5.01 8.67 4.02 8.34 3 8 C3 7.34 3 6.68 3 6 C2.34 6 1.68 6 1 6 C0.67 4.02 0.34 2.04 0 0 Z " fill="#FDDFC0" transform="translate(400,274)"/>
<path d="M0 0 C0.33 0.99 0.66 1.98 1 3 C-1.97 5.475 -1.97 5.475 -5 8 C-5.66 7.67 -6.32 7.34 -7 7 C-4.66666667 4.66666667 -2.33333333 2.33333333 0 0 Z " fill="#EAD393" transform="translate(201,114)"/>
<path d="M0 0 C1.21236328 0.04060547 1.21236328 0.04060547 2.44921875 0.08203125 C3.06410156 0.11683594 3.67898437 0.15164062 4.3125 0.1875 C3.673125 0.31125 3.03375 0.435 2.375 0.5625 C1.694375 0.76875 1.01375 0.975 0.3125 1.1875 C-0.0175 1.8475 -0.3475 2.5075 -0.6875 3.1875 C-3.02083333 3.1875 -5.35416667 3.1875 -7.6875 3.1875 C-5.26849268 0.20484049 -3.789448 -0.16475861 0 0 Z " fill="#F4D469" transform="translate(246.6875,91.8125)"/>
<path d="M0 0 C2.5 1.3125 2.5 1.3125 5 3 C5 3.99 5 4.98 5 6 C6.65 6 8.3 6 10 6 C10 6.33 10 6.66 10 7 C8.02 7 6.04 7 4 7 C4 6.34 4 5.68 4 5 C3.01 5 2.02 5 1 5 C0.67 3.35 0.34 1.7 0 0 Z " fill="#E88648" transform="translate(408,326)"/>
<path d="M0 0 C1.32 0.33 2.64 0.66 4 1 C4 1.99 4 2.98 4 4 C5.32 4.33 6.64 4.66 8 5 C8 5.66 8 6.32 8 7 C4.21388773 6.45912682 2.44599233 4.88277668 0 2 C0 1.34 0 0.68 0 0 Z " fill="#ED7D30" transform="translate(64,314)"/>
<path d="M0 0 C2.64 0 5.28 0 8 0 C8 0.99 8 1.98 8 3 C5.6568787 2.74438677 3.32156597 2.40729228 1 2 C0.67 1.34 0.34 0.68 0 0 Z " fill="#F99534" transform="translate(126,250)"/>
<path d="M0 0 C1.32 0.33 2.64 0.66 4 1 C4 1.99 4 2.98 4 4 C4.99 4.33 5.98 4.66 7 5 C7 5.99 7 6.98 7 8 C2.60841671 6.5361389 2.12052567 4.02168662 0 0 Z " fill="#F4B478" transform="translate(344,238)"/>
<path d="M0 0 C0.99 0.33 1.98 0.66 3 1 C2.67 1.99 2.34 2.98 2 4 C3.32 3.67 4.64 3.34 6 3 C5.67 3.99 5.34 4.98 5 6 C2.69 5.01 0.38 4.02 -2 3 C-1.34 2.01 -0.68 1.02 0 0 Z " fill="#F18230" transform="translate(213,297)"/>
<path d="M0 0 C1.48117801 0.28127421 2.95993249 0.57533732 4.4375 0.875 C5.67306641 1.11863281 5.67306641 1.11863281 6.93359375 1.3671875 C7.61550781 1.57601563 8.29742187 1.78484375 9 2 C9.33 2.66 9.66 3.32 10 4 C6.53058454 3.54177532 3.32604951 3.10868317 0 2 C0 1.34 0 0.68 0 0 Z " fill="#EF9C55" transform="translate(374,272)"/>
<path d="M0 0 C6.625 0.75 6.625 0.75 10 3 C10 3.66 10 4.32 10 5 C6.08788267 3.84414715 3.1254959 2.64465038 0 0 Z " fill="#FEE2C3" transform="translate(380,273)"/>
<path d="M0 0 C2.475 0.495 2.475 0.495 5 1 C5 1.66 5 2.32 5 3 C5.99 3.33 6.98 3.66 8 4 C7.34 4.66 6.68 5.32 6 6 C6 5.34 6 4.68 6 4 C4.35 4 2.7 4 1 4 C0.67 2.68 0.34 1.36 0 0 Z " fill="#F5AA49" transform="translate(135,200)"/>
<path d="M0 0 C4.875 4.625 4.875 4.625 6 8 C5.34 8 4.68 8 4 8 C4 7.34 4 6.68 4 6 C3.34 6 2.68 6 2 6 C2 5.34 2 4.68 2 4 C1.34 4 0.68 4 0 4 C-0.33 3.01 -0.66 2.02 -1 1 C-0.67 0.67 -0.34 0.34 0 0 Z " fill="#EFEFEE" transform="translate(360,106)"/>
<path d="M0 0 C0.33 0.66 0.66 1.32 1 2 C-0.25 4 -0.25 4 -2 6 C-3.32 6 -4.64 6 -6 6 C-6 5.34 -6 4.68 -6 4 C-4.03852126 2.61061923 -2.03833424 1.2739589 0 0 Z " fill="#FAE3CF" transform="translate(438,322)"/>
<path d="M0 0 C0.96516243 3.00272755 1.22393475 5.04215769 0 8 C-0.99 8.33 -1.98 8.66 -3 9 C-2.44271087 5.65626525 -1.64826111 2.96687001 0 0 Z " fill="#E7B681" transform="translate(49,232)"/>
<path d="M0 0 C1.65 0 3.3 0 5 0 C5 0.99 5 1.98 5 3 C5.66 3 6.32 3 7 3 C7 3.99 7 4.98 7 6 C6.34 6 5.68 6 5 6 C3.2856382 4.04072937 1.61594832 2.04119788 0 0 Z " fill="#F1B56E" transform="translate(335,230)"/>
<path d="M0 0 C0 3.69418201 -1.28179295 5.77836178 -3 9 C-3.66 9 -4.32 9 -5 9 C-3.90931332 5.22454612 -3.0916909 2.52956528 0 0 Z " fill="#E8BB8D" transform="translate(55,223)"/>
<path d="M0 0 C0.66 0 1.32 0 2 0 C0.50163895 3.11198065 -1.19933758 6.0534615 -3 9 C-3.66 8.67 -4.32 8.34 -5 8 C-4.21718695 6.66144944 -3.42348123 5.32926356 -2.625 4 C-2.18414062 3.2575 -1.74328125 2.515 -1.2890625 1.75 C-0.86367188 1.1725 -0.43828125 0.595 0 0 Z " fill="#DDDDDD" transform="translate(279,326)"/>
<path d="M0 0 C2 1 2 1 2.6875 2.9375 C3 5 3 5 2 7 C1.34 7 0.68 7 0 7 C-1.125 2.25 -1.125 2.25 0 0 Z " fill="#F57D30" transform="translate(265,308)"/>
<path d="M0 0 C1.98 0.66 3.96 1.32 6 2 C5.67 3.32 5.34 4.64 5 6 C3.31237149 4.3545622 1.6459651 2.68711423 0 1 C0 0.67 0 0.34 0 0 Z " fill="#E7965E" transform="translate(218,303)"/>
<path d="M0 0 C0.66 0 1.32 0 2 0 C2.33 0.66 2.66 1.32 3 2 C3.99 2.66 4.98 3.32 6 4 C5.67 4.66 5.34 5.32 5 6 C3.68 5.67 2.36 5.34 1 5 C0.67 3.35 0.34 1.7 0 0 Z " fill="#EC8539" transform="translate(55,304)"/>
<path d="M0 0 C1.32 0.33 2.64 0.66 4 1 C2.02579865 3.52259061 1.03254358 3.9929808 -2.1875 4.6875 C-3.5796875 4.8421875 -3.5796875 4.8421875 -5 5 C-3.625 3.5 -3.625 3.5 -2 2 C-1.34 2 -0.68 2 0 2 C0 1.34 0 0.68 0 0 Z " fill="#F08434" transform="translate(281,299)"/>
<path d="M0 0 C2.31 0 4.62 0 7 0 C6.67 1.32 6.34 2.64 6 4 C4.125 3.6875 4.125 3.6875 2 3 C1.34 2.01 0.68 1.02 0 0 Z " fill="#FEE3C8" transform="translate(142,284)"/>
</svg>
